<svg xmlns="http://www.w3.org/2000/svg" width="1426.782" height="1305.052" viewBox="0 0 1426.782 1305.052">
  <g id="Grupo_21" data-name="Grupo 21" transform="translate(-536.617 74.765)">
    <g id="Grupo_14" data-name="Grupo 14" transform="translate(543.072 -74.765)">
      <path id="path352" d="M900.48-192.63l-169.641-10L867.9-285.74l32.925,25.635.006-1.843L868.4-287.2l-.827-.047L728.083-202.665a.725.725,0,0,0-.33.8.731.731,0,0,0,.662.553L900.47-191.17l.009-1.461" transform="translate(518.079 768.034)" fill="#4790f7"/>
      <path id="path354" d="M891.094-84.085,803.055-33.563l-66.49-17.759L891.23-110.546l.006-1.567-157.3,60.232a.73.73,0,0,0-.463.718.729.729,0,0,0,.537.668l68.955,18.422.186.024.367-.1L891.084-82.4l.009-1.687" transform="translate(525.722 1001.085)" fill="#4790f7"/>
      <path id="path356" d="M482.4-148.085l7.157,34.6,169.97-55.129Zm6.607,36.275-.367-.1-.345-.482-7.486-36.182.121-.575.506-.3,185.2-21.461a.705.705,0,0,1,.8.566.733.733,0,0,1-.491.851L489.233-111.844l-.227.034" transform="translate(189.497 922.841)" fill="#4790f7"/>
      <path id="path358" d="M237.913,80.262,324.186,135.3,385.207-23.228Zm86.63,56.863-.388-.115L236.21,80.9l-.339-.6.311-.609L386.329-25.8l.867.022a.728.728,0,0,1,.233.836l-62.2,161.6-.454.435-.23.034" transform="translate(-136.441 1115.947)" fill="#4790f7"/>
      <path id="path360" d="M275.36,135.745l263.437,4.2L336.828-23.942Zm265.532,5.693h-.009l-266.588-4.251-.594-.319-.075-.671,62.2-161.6.491-.446.649.141L541.355,140.145a.729.729,0,0,1-.463,1.293" transform="translate(-86.201 1115.884)" fill="#4790f7"/>
      <path id="path362" d="M562.4-96.988,867.415,25.476,716.821-224.26ZM869.159,27.692l-.267-.053L560.717-96.09l-.451-.569.258-.671,156.02-128.592.584-.158.5.342L869.786,26.585l-.065.852-.562.255" transform="translate(295.233 849.429)" fill="#4790f7"/>
      <path id="path364" d="M628.962-192.422,779.1,56.555,755.112-248.835ZM780.066,60.3l-.619-.352L627.29-192.373l-.071-.594.4-.447L755.46-250.587l.668.037.354.569L780.8,59.517a.723.723,0,0,1-.5.751l-.227.035" transform="translate(384.326 816.817)" fill="#4790f7"/>
      <path id="path366" d="M683.572-248.65,707.488,55.8l80.8-305.333Zm23.522,309.5-.059,0a.724.724,0,0,1-.662-.667l-24.317-309.5.193-.553.531-.236,106.457-.9.581.28.128.634-82.14,310.4a.73.73,0,0,1-.712.544" transform="translate(457.298 816.266)" fill="#4790f7"/>
      <path id="path368" d="M945.779-89.043,788.864-28.961,695.1-101.1l250.876-26.884.006-1.466L693.141-102.353a.739.739,0,0,0-.628.529.731.731,0,0,0,.258.773L788.3-27.556l.438.149.267-.046,156.766-60.03.006-1.56" transform="translate(471.179 978.019)" fill="#4790f7"/>
      <path id="path370" d="M788.044-291.716,684.589-192.783l103.887-.879ZM682.75-191.31a.727.727,0,0,1-.671-.454l.174-.8L788.262-293.944l.789-.143a.727.727,0,0,1,.441.668l.448,100.475a.726.726,0,0,1-.721.733l-106.457.9h-.013" transform="translate(457.328 758.932)" fill="#4790f7"/>
      <path id="path372" d="M902.014-112.782l-172.73,83.6-.5-461.463,174,228.039.009-2.39L728.632-493.245a.726.726,0,0,0-.814-.245.726.726,0,0,0-.494.69l.506,464.785.339.615.385.115.32-.075,173.134-83.8.006-1.622" transform="translate(517.536 493.532)" fill="#4790f7"/>
      <path id="path374" d="M729-292.569l.438,98.368L866-277.009Zm-.289,100.388-.354-.093-.373-.634-.441-100.475.24-.547.569-.18,139.938,15.892a.737.737,0,0,1,.631.569.734.734,0,0,1-.336.777L729.091-192.286l-.382.106" transform="translate(517.825 758.902)" fill="#4790f7"/>
      <path id="path376" d="M901.421-270.122,867.9-230.279,730.851-245.842l170.868-82.7.006-1.625L727.952-246.057a.724.724,0,0,0-.4.777.722.722,0,0,0,.637.6l139.935,15.892.078,0,.563-.255,32.645-38.8.012-2.281" transform="translate(517.825 710.917)" fill="#4790f7"/>
      <path id="path378" d="M388.511,133.729l161.984,47.279,5.3.028-165.116-48.2L683.571-17.93,612.808,181.325l1.544.01L685.563-19.181a.727.727,0,0,0-.208-.789l-.817-.1L388.38,132.378a.737.737,0,0,0-.392.721.729.729,0,0,0,.522.63" transform="translate(65.978 1123.565)" fill="#4790f7"/>
      <path id="path380" d="M485.989,181.349,556.927-18.4,748.992,74.8l-236.6,106.678,3.505.018L751.015,75.5a.735.735,0,0,0,.019-1.324L556.827-20.063l-.594-.019-.41.429L484.448,181.339l1.542.01" transform="translate(194.341 1123.551)" fill="#4790f7"/>
      <path id="path382" d="M489.082-143.1l80.832,60.887L617.394-96.4Zm80.686,62.419-.438-.146-85.024-64.045a.729.729,0,0,1-.2-.932.73.73,0,0,1,.892-.336L619.964-97.016a.731.731,0,0,1,.482.705.731.731,0,0,1-.519.677L569.979-80.709l-.211.032" transform="translate(193.763 955.753)" fill="#4790f7"/>
      <path id="path384" d="M486.985-112.523,619.3-64.37l41.9-104.658ZM619.713-62.715l-.248-.042L484.5-111.876a.731.731,0,0,1-.482-.7.732.732,0,0,1,.5-.684L662.234-170.9l.755.193.146.771L620.394-63.171a.731.731,0,0,1-.681.456" transform="translate(193.762 922.864)" fill="#4790f7"/>
      <path id="path386" d="M529.164-108.917,516.923,112.938l60.461-236.265ZM515.779,121.058l-.106-.008a.731.731,0,0,1-.618-.762l12.682-229.8a.728.728,0,0,1,.519-.659L578.2-125.092l.712.171.205.705-62.63,244.723a.73.73,0,0,1-.709.55" transform="translate(235.068 983.815)" fill="#4790f7"/>
      <path id="path388" d="M543.681-64.13,889.249-47.418,585.77-169.264ZM893.537-45.752h-.031L542.587-62.723l-.575-.335-.065-.665,42.742-106.762.388-.4.559-.006L893.814-47.157a.733.733,0,0,1,.441.834.733.733,0,0,1-.718.572" transform="translate(270.854 922.873)" fill="#4790f7"/>
      <path id="path390" d="M546.505-288.055,582.087-12.644l154.3-127.175Zm35.026,277.54-.267-.05-.451-.584-35.98-278.478a.719.719,0,0,1,.36-.724l.811.056L738-140.41l.283.566-.264.572L582-10.683l-.469.168" transform="translate(274.686 763.903)" fill="#4790f7"/>
      <path id="path392" d="M546.954-246.685,736.635-98.608,712.191-320.823ZM737.546-96.243,737.1-96.4l-192-149.883-.273-.662.423-.578,167.257-75.042.659.031.367.553L738.279-97.051a.742.742,0,0,1-.373.718l-.36.09" transform="translate(274.689 721.039)" fill="#4790f7"/>
      <path id="path394" d="M583.942-425.287l79.25,329.076L919.426-491.75ZM662.876-93.66l-.118-.009a.729.729,0,0,1-.584-.55L582.345-425.688l.1-.559.472-.323,337.92-66.947a.727.727,0,0,1,.743.308l.009.8L663.494-94l-.618.336" transform="translate(324.613 493.531)" fill="#4790f7"/>
      <path id="path396" d="M618.286-319.712l24.388,221.7,126.01-56.353Zm23.77,223.5L641.7-96.3l-.361-.553L616.592-321.781a.724.724,0,0,1,.426-.746.73.73,0,0,1,.836.174L770.443-154.6l.174.64-.413.516L642.357-96.269l-.3.062" transform="translate(370.179 721.003)" fill="#4790f7"/>
      <path id="path398" d="M619.435-320.55l150.448,165.4L874.4-255.1Zm150.4,167.17h-.022l-.513-.236L616.716-321.37l-.084-.867a.724.724,0,0,1,.8-.329l258.6,66.372.522.525-.2.709L770.349-153.582l-.51.2" transform="translate(370.238 721.002)" fill="#4790f7"/>
      <path id="path400" d="M618.449-94.846,875.155-28.958l-.5-461.379ZM875.882-27.286l-.177-.025-258.6-66.372-.5-.441.065-.662L874.77-493.2a.718.718,0,0,1,.814-.3.726.726,0,0,1,.525.7l.5,464.785-.28.578-.451.152" transform="translate(370.208 493.533)" fill="#4790f7"/>
      <path id="path402" d="M578.846-123.208l-62.084,242.6L842.218,58.714ZM515.768,121.049l-.528-.233-.177-.677,62.63-244.72.451-.5.668.081L844.487,58.508a.732.732,0,0,1,.3.753.722.722,0,0,1-.581.562L515.9,121.037l-.137.012" transform="translate(235.08 983.824)" fill="#4790f7"/>
      <path id="path404" d="M518.1,15.882l191.7,93.025L842.174-44.542Zm191.888,94.654-.314-.072-194.2-94.238a.729.729,0,0,1,.186-1.374l328.3-61.21a.733.733,0,0,1,.771.354l-.084.839L710.54,110.282l-.556.255" transform="translate(235.067 1088.572)" fill="#4790f7"/>
      <path id="path406" d="M545.171-123.523,808.058,58.063l84.35-164.8ZM808.322,59.862l-.407-.126L542.237-123.776a.729.729,0,0,1-.273-.835.756.756,0,0,1,.724-.494l350.919,16.97.6.363.016.7L808.975,59.467l-.469.376-.183.018" transform="translate(270.825 983.798)" fill="#4790f7"/>
      <path id="path408" d="M600.34,109.475l89.169,31.638,42.313-184.05ZM690.034,142.8l-.239-.044-90.947-32.267-.46-.5.152-.661,134.1-155.448a.728.728,0,0,1,.88-.175.728.728,0,0,1,.382.812L690.746,142.239l-.357.476-.354.09" transform="translate(345.961 1088.573)" fill="#4790f7"/>
      <path id="path410" d="M681.691-44.237,639.049,141.245l215.2-18.9ZM638.114,142.788l-.547-.252-.161-.64L680.56-45.821l.5-.535.711.175L856.419,122.408l.18.769a.722.722,0,0,1-.624.481l-217.8,19.128-.065,0" transform="translate(397.882 1088.589)" fill="#4790f7"/>
      <path id="path412" d="M742.136-115.991,658.324,47.747,836.06-43.734Zm-85.5,166.153-.513-.211a.74.74,0,0,1-.134-.847l85.248-166.539.488-.38.606.134L837.859-44.19l.283.643-.391.584L656.976,50.085l-.339.076" transform="translate(422.51 993.497)" fill="#4790f7"/>
      <path id="path414" d="M658.035-2.709l172.888,166.9L905.257-76.586ZM831.269,166.266l-.5-.208L656.121-2.528l-.2-.7.5-.526L906.149-78.373l.727.183.177.731L831.968,165.754l-.516.488-.183.024" transform="translate(422.522 1045.983)" fill="#4790f7"/>
      <path id="path416" d="M837.5-84.8,663.968,4.521,903.691-67.115ZM656.637,8.2a.729.729,0,0,1-.33-1.377L837.08-86.227l.525-.053,68.951,18.422a.73.73,0,0,1,.544.693.73.73,0,0,1-.522.709L656.851,8.169l-.214.028" transform="translate(422.51 1035.462)" fill="#4790f7"/>
      <path id="path418" d="M400.477-56.795,197.853,61.86,442.38,17.782ZM193.937,64.035a.73.73,0,0,1-.367-1.358l206.811-121.1.556-.075.447.346,42.767,76.117.025.669-.531.4L194.068,64.023l-.131.012" transform="translate(-193.21 1072.427)" fill="#4790f7"/>
      <path id="path420" d="M283.761-42.777l41.76,74.315,82.9-99.089ZM325.4,33.546l-.065,0-.569-.37L282-42.942l-.028-.661.519-.411,127.682-25.37a.729.729,0,0,1,.768.342l-.068.842L325.962,33.288l-.562.259" transform="translate(-75.096 1057.927)" fill="#4790f7"/>
      <path id="path422" d="M456.033-156.219l-.177-.025a.729.729,0,0,1-.525-.889l40.11-154.482a.723.723,0,0,1,.889-.522.727.727,0,0,1,.522.889l-40.11,154.482a.73.73,0,0,1-.709.547" transform="translate(155.564 734.88)" fill="#4790f7"/>
      <path id="path424" d="M496.649-310.534l-39.516,152.2L662.691-260.549Zm-40.629,154.3-.457-.165-.246-.749,40.11-154.482.348-.451.566-.062,168.531,50.735a.722.722,0,0,1,.516.637.721.721,0,0,1-.4.712L456.349-156.317l-.329.078" transform="translate(155.577 734.899)" fill="#4790f7"/>
      <path id="path426" d="M457.356-243.389,515.975-49.832,698.692-71ZM515.45-48.309a.724.724,0,0,1-.693-.516L455.339-245.017a.725.725,0,0,1,.273-.8l.848,0L701.079-71.091a.727.727,0,0,1,.283.774.73.73,0,0,1-.621.544L515.54-48.312l-.09,0" transform="translate(155.564 823.159)" fill="#4790f7"/>
      <path id="path428" d="M457.449-185.849,699.718-12.8,664.086-288.6ZM700.653-10.5l-.423-.134L455.613-185.367l-.3-.65.4-.6L664.35-290.361l.668.009.379.55L701.38-11.323a.731.731,0,0,1-.351.718l-.376.1" transform="translate(155.564 763.891)" fill="#4790f7"/>
      <path id="path430" d="M553.783-159.454,432.957-29.032l127.93-96.083ZM426.913-22.847l-.538-.241a.726.726,0,0,1,.006-.984L553.675-161.487l.73-.205.519.556,7.486,36.179-.276.73L427.354-22.994l-.441.147" transform="translate(116.811 935.112)" fill="#4790f7"/>
      <path id="path432" d="M561.7-144.622l-131.942,99.1,215.179-36.4ZM426.913-43.572a.731.731,0,0,1-.668-.442.733.733,0,0,1,.23-.873l134.783-101.23h.877l85.03,64.045a.726.726,0,0,1,.264.755.719.719,0,0,1-.584.544L427.038-43.585l-.124.013" transform="translate(116.81 955.837)" fill="#4790f7"/>
      <path id="path434" d="M428.474-80.318,633.383,110.224l12.545-227.329ZM634.019,112.548l-.491-.2L426.4-80.256,426.2-81l.575-.509L646.584-118.7l.606.173.242.585-12.682,229.8a.729.729,0,0,1-.454.637l-.277.052" transform="translate(116.828 992.325)" fill="#4790f7"/>
      <path id="path436" d="M946.661-100.291,694.4,58.493l81.453-307.8,171.2,72.323.009-1.579L775.641-250.978l-.6.019-.385.469-82.14,310.4a.731.731,0,0,0,.27.773l.429.141.395-.113L946.652-98.563l.009-1.728" transform="translate(471.18 816.298)" fill="#4790f7"/>
      <path id="path438" d="M945.985-53.761,696.271-27,946.653-184.594l.009-1.731L692.828-26.557a.732.732,0,0,0-.3.855.732.732,0,0,0,.687.492l.081,0,252.685-27.08.006-1.466" transform="translate(471.179 902.332)" fill="#4790f7"/>
      <path id="path440" d="M900.163-178.53,732.648-249.3,900.471-239.4l.009-1.461L728.5-251a.686.686,0,0,0-.752.559.728.728,0,0,0,.426.839l171.978,72.649.009-1.579" transform="translate(518.079 816.266)" fill="#4790f7"/>
      <path id="path442" d="M386.2-67.606,303.373,31.387,549.9-68.18ZM300.94,33.882l-.587-.3.031-.895L385.3-68.8l.556-.259,167.835-.59h.006a.73.73,0,0,1,.712.59.73.73,0,0,1-.441.814L301.214,33.833l-.273.05" transform="translate(-50.636 1057.591)" fill="#4790f7"/>
      <path id="path444" d="M302.438,33.337,504.9,197.629,552.811-67.779ZM505.4,199.7l-.457-.162L300.558,33.691l-.261-.675.448-.568L553.491-69.628l.733.109.255.7L506.122,199.1l-.463.553-.258.046" transform="translate(-50.71 1057.621)" fill="#4790f7"/>
      <path id="path446" d="M544.423-100.665,341.538-25.036l163.31-.572Zm-206.972,77.1a.733.733,0,0,1-.715-.6.73.73,0,0,1,.463-.814L545.7-102.7a.736.736,0,0,1,.8.2l.1.821L505.933-24.542l-.643.388-167.835.591h0" transform="translate(-2.235 1013.551)" fill="#4790f7"/>
      <path id="path448" d="M437.616-67.9,389.688,197.638,683.21,46.547Zm-48.91,267.592-.432-.142-.283-.715,48.36-267.925.382-.516.643-.016L685.174,45.85l.423.647-.395.662L389.045,199.612l-.339.08" transform="translate(65.985 1057.63)" fill="#4790f7"/>
      <path id="path450" d="M410.445-25.226l242.918,113.2L450.315-100.84ZM657.237,91.315l-.3-.068L409.136-24.228l-.385-.429.047-.572,40.672-77.134.522-.379.622.183L657.738,90.05a.727.727,0,0,1,.109.942l-.609.323" transform="translate(93.61 1013.557)" fill="#4790f7"/>
      <path id="path452" d="M851.3-16.963,765.5-48.922,851.716-98.4l.009-1.687-88.3,50.676a.727.727,0,0,0-.367.693.734.734,0,0,0,.475.624l87.756,32.686.006-1.554" transform="translate(565.091 1017.088)" fill="#4790f7"/>
      <path id="path454" d="M473.243-246.4l-.6-.323a.728.728,0,0,1,.2-1.013l168.4-112.626a.728.728,0,0,1,1.01.2.727.727,0,0,1-.2,1.01L473.651-246.523l-.407.124" transform="translate(178.463 670.578)" fill="#4790f7"/>
      <path id="path456" d="M474.932-247.43l166.11,50-.124-161.014Zm166.838,51.717-.2-.031L473.03-246.479a.728.728,0,0,1-.51-.59l.317-.715,168.4-112.626.746-.037.389.643.124,163.36-.292.584-.438.146" transform="translate(178.468 670.627)" fill="#4790f7"/>
      <path id="path458" d="M546.229-358.592l.124,161.023,164.861-73.97Zm-.606,162.879-.395-.118-.33-.612-.127-163.36.351-.625.718-.019,167.381,88.318.389.668-.432.64L545.925-195.779l-.3.065" transform="translate(274.614 670.627)" fill="#4790f7"/>
      <path id="path460" d="M546.4-221.277l165.392,87.268L632.918-461.541Zm166.474,89.4-.336-.087L545.162-220.282a.73.73,0,0,1-.348-.895l87.553-243.148a.706.706,0,0,1,.724-.479.725.725,0,0,1,.671.556l79.828,331.466-.261.749-.454.152" transform="translate(274.612 531.752)" fill="#4790f7"/>
      <path id="path462" d="M893.653,55.252,732.881,163.784l74.063-239.9,86.808,111.7.012-2.362L807.233-78.114l-.706-.267-.565.5L730.877,165.332a.732.732,0,0,0,.261.8l.432.143.41-.124L893.643,57.017l.009-1.765" transform="translate(522.221 1045.973)" fill="#4790f7"/>
      <path id="path464" d="M892.891,128.573,733.338,88.938,893.644-19.28l.009-1.765L731.166,88.643a.73.73,0,0,0,.23,1.315l161.486,40.116.009-1.5" transform="translate(522.221 1122.27)" fill="#4790f7"/>
      <path id="path466" d="M850.814,33.235,765.859-76.077l85.353,31.79.006-1.554-87.255-32.5a.726.726,0,0,0-.842.251l.009.876L850.8,35.6l.013-2.362" transform="translate(565.172 1045.966)" fill="#4790f7"/>
    </g>
    <g id="Grupo_11" data-name="Grupo 11" transform="translate(536.617 828.346)">
      <g id="Grupo_19" data-name="Grupo 19" transform="translate(0 0)">
        <path id="path494" d="M197.663-9.323a7.194,7.194,0,0,0-7.222,7.151,7.194,7.194,0,0,0,7.147,7.222,7.2,7.2,0,0,0,7.225-7.15A7.2,7.2,0,0,0,197.663-9.323ZM197.647-6.4A4.27,4.27,0,0,1,201.9-2.112,4.269,4.269,0,0,1,197.6,2.133a4.271,4.271,0,0,1-4.248-4.292A4.269,4.269,0,0,1,197.647-6.4" transform="translate(-190.441 234.757)" fill="#4790f7"/>
        <path id="path498" d="M287.912-62.413a9.832,9.832,0,0,0-9.87,9.771,9.835,9.835,0,0,0,9.77,9.873,9.834,9.834,0,0,0,9.873-9.773A9.834,9.834,0,0,0,287.912-62.413ZM287.9-59.5a6.908,6.908,0,0,1,6.868,6.942,6.9,6.9,0,0,1-6.939,6.867,6.9,6.9,0,0,1-6.868-6.939A6.905,6.905,0,0,1,287.9-59.5" transform="translate(-73.87 164.11)" fill="#4790f7"/>
        <path id="path530" d="M307.524-30.693a12.022,12.022,0,0,0-12.07,11.945A12.025,12.025,0,0,0,307.4-6.678a12.021,12.021,0,0,0,12.067-11.948,12.018,12.018,0,0,0-11.942-12.066Zm-.016,2.918a9.089,9.089,0,0,1,9.043,9.136A9.092,9.092,0,0,1,307.415-9.6a9.091,9.091,0,0,1-9.043-9.137,9.087,9.087,0,0,1,9.136-9.042" transform="translate(-50.7 206.32)" fill="#4790f7"/>
        <path id="path534" d="M341.732-72.583a8.164,8.164,0,0,0-8.192,8.111,8.157,8.157,0,0,0,8.111,8.192,8.159,8.159,0,0,0,8.192-8.108A8.163,8.163,0,0,0,341.732-72.583Zm-.012,2.918a5.233,5.233,0,0,1,5.205,5.261,5.236,5.236,0,0,1-5.258,5.209,5.235,5.235,0,0,1-5.208-5.261,5.232,5.232,0,0,1,5.261-5.209" transform="translate(-0.018 150.577)" fill="#4790f7"/>
        <path id="path538" d="M415.68-74.278A11.526,11.526,0,0,0,404.107-62.82a11.53,11.53,0,0,0,11.458,11.576A11.53,11.53,0,0,0,427.138-62.7,11.528,11.528,0,0,0,415.68-74.278Zm-.016,2.915a8.6,8.6,0,0,1,8.558,8.645,8.6,8.6,0,0,1-8.645,8.556,8.6,8.6,0,0,1-8.555-8.646,8.6,8.6,0,0,1,8.642-8.556" transform="translate(93.886 148.321)" fill="#4790f7"/>
        <path id="path546" d="M431.349-106.047a8.434,8.434,0,0,0-8.465,8.378,8.43,8.43,0,0,0,8.381,8.466,8.434,8.434,0,0,0,8.465-8.378A8.43,8.43,0,0,0,431.349-106.047Zm-.012,2.916a5.506,5.506,0,0,1,5.476,5.534,5.5,5.5,0,0,1-5.532,5.478,5.505,5.505,0,0,1-5.479-5.534,5.507,5.507,0,0,1,5.535-5.478" transform="translate(118.873 106.047)" fill="#4790f7"/>
      </g>
      <g id="Grupo_20" data-name="Grupo 20" transform="translate(2.915 2.916)">
        <path id="path492" d="M195.983-8.071a4.269,4.269,0,0,0-4.292,4.245A4.271,4.271,0,0,0,195.94.467a4.269,4.269,0,0,0,4.292-4.245,4.27,4.27,0,0,0-4.248-4.292" transform="translate(-191.691 233.508)" fill="#fff"/>
        <path id="path496" d="M286.233-61.162a6.905,6.905,0,0,0-6.939,6.871,6.9,6.9,0,0,0,6.868,6.939A6.9,6.9,0,0,0,293.1-54.22a6.908,6.908,0,0,0-6.868-6.942" transform="translate(-75.119 162.859)" fill="#fff"/>
        <path id="path528" d="M305.842-29.441a9.086,9.086,0,0,0-9.136,9.042,9.091,9.091,0,0,0,9.043,9.137,9.092,9.092,0,0,0,9.136-9.043,9.089,9.089,0,0,0-9.043-9.136" transform="translate(-51.948 205.07)" fill="#fff"/>
        <path id="path532" d="M345.259-66.07a5.233,5.233,0,0,0-5.205-5.261,5.234,5.234,0,0,0-5.261,5.209A5.235,5.235,0,0,0,340-60.861a5.236,5.236,0,0,0,5.258-5.209" transform="translate(-1.266 149.328)" fill="#fff"/>
        <path id="path536" d="M414-73.028a8.6,8.6,0,0,0-8.642,8.556,8.6,8.6,0,0,0,8.555,8.646,8.6,8.6,0,0,0,8.645-8.556A8.6,8.6,0,0,0,414-73.028" transform="translate(92.635 147.069)" fill="#fff"/>
        <path id="path544" d="M429.671-104.8a5.507,5.507,0,0,0-5.535,5.478,5.505,5.505,0,0,0,5.479,5.534,5.5,5.5,0,0,0,5.532-5.478,5.506,5.506,0,0,0-5.476-5.534" transform="translate(117.624 104.796)" fill="#fff"/>
      </g>
    </g>
    <g id="Grupo_13" data-name="Grupo 13" transform="translate(1147.589 222.611)">
      <g id="Grupo_15" data-name="Grupo 15" transform="translate(0)">
        <path id="path470" d="M634.765-231.167a12.592,12.592,0,0,0-12.645,12.511,12.594,12.594,0,0,0,12.514,12.642,12.594,12.594,0,0,0,12.642-12.514,12.588,12.588,0,0,0-12.511-12.639Zm-.016,2.918a9.659,9.659,0,0,1,9.612,9.708,9.663,9.663,0,0,1-9.711,9.609,9.657,9.657,0,0,1-9.612-9.708,9.659,9.659,0,0,1,9.711-9.609" transform="translate(-226.976 545.283)" fill="#4790f7"/>
        <path id="path474" d="M686.436-253.329a7.064,7.064,0,0,0-7.095,7.017,7.061,7.061,0,0,0,7.02,7.088,7.057,7.057,0,0,0,7.089-7.017A7.06,7.06,0,0,0,686.436-253.329Zm-.016,2.915a4.139,4.139,0,0,1,4.115,4.158,4.141,4.141,0,0,1-4.158,4.118,4.137,4.137,0,0,1-4.115-4.158,4.137,4.137,0,0,1,4.158-4.118" transform="translate(-150.832 515.793)" fill="#4790f7"/>
        <path id="path478" d="M735.016-299.135a12.453,12.453,0,0,0-12.5,12.371,12.454,12.454,0,0,0,12.375,12.5,12.451,12.451,0,0,0,12.5-12.374,12.449,12.449,0,0,0-12.371-12.5ZM735-296.217a9.519,9.519,0,0,1,9.469,9.568,9.521,9.521,0,0,1-9.568,9.469,9.518,9.518,0,0,1-9.469-9.568A9.513,9.513,0,0,1,735-296.217" transform="translate(-93.378 454.839)" fill="#4790f7"/>
        <path id="path502" d="M459.7-248.607a7.094,7.094,0,0,0-7.119,7.051,7.09,7.09,0,0,0,7.048,7.12,7.1,7.1,0,0,0,7.123-7.048,7.1,7.1,0,0,0-7.051-7.123Zm-.016,2.918a4.169,4.169,0,0,1,4.149,4.189,4.173,4.173,0,0,1-4.192,4.149,4.171,4.171,0,0,1-4.146-4.192,4.168,4.168,0,0,1,4.189-4.146" transform="translate(-452.582 522.076)" fill="#4790f7"/>
        <path id="path526" d="M734.554-255.538A11.316,11.316,0,0,0,723.2-244.295a11.312,11.312,0,0,0,11.243,11.355,11.309,11.309,0,0,0,11.355-11.24,11.312,11.312,0,0,0-11.24-11.358Zm-.015,2.918a8.382,8.382,0,0,1,8.341,8.425,8.386,8.386,0,0,1-8.425,8.341,8.387,8.387,0,0,1-8.341-8.428,8.379,8.379,0,0,1,8.425-8.338" transform="translate(-92.474 512.853)" fill="#4790f7"/>
        <path id="path550" d="M478.3-315.926a9.515,9.515,0,0,0-9.553,9.456,9.512,9.512,0,0,0,9.453,9.55,9.515,9.515,0,0,0,9.553-9.453A9.515,9.515,0,0,0,478.3-315.926Zm-.015,2.918a6.589,6.589,0,0,1,6.554,6.619,6.583,6.583,0,0,1-6.622,6.551,6.585,6.585,0,0,1-6.554-6.619,6.587,6.587,0,0,1,6.622-6.551" transform="translate(-431.063 432.495)" fill="#4790f7"/>
        <path id="path554" d="M549.64-293.43a7.821,7.821,0,0,0-7.853,7.769,7.82,7.82,0,0,0,7.769,7.847,7.82,7.82,0,0,0,7.853-7.769,7.818,7.818,0,0,0-7.769-7.847Zm-.016,2.915a4.9,4.9,0,0,1,4.866,4.919,4.9,4.9,0,0,1-4.919,4.866,4.89,4.89,0,0,1-4.863-4.916,4.893,4.893,0,0,1,4.916-4.87" transform="translate(-333.876 462.431)" fill="#4790f7"/>
        <path id="path558" d="M552.83-365.94a13.465,13.465,0,0,0-13.515,13.378,13.464,13.464,0,0,0,13.378,13.518,13.469,13.469,0,0,0,13.518-13.381A13.464,13.464,0,0,0,552.83-365.94Zm-.013,2.915a10.535,10.535,0,0,1,10.476,10.588,10.53,10.53,0,0,1-10.584,10.476,10.532,10.532,0,0,1-10.479-10.585,10.535,10.535,0,0,1,10.587-10.479" transform="translate(-337.165 365.941)" fill="#4790f7"/>
        <path id="path562" d="M621.676-325.835a8.3,8.3,0,0,0-8.335,8.248,8.3,8.3,0,0,0,8.251,8.335,8.3,8.3,0,0,0,8.334-8.248A8.3,8.3,0,0,0,621.676-325.835Zm-.016,2.915a5.376,5.376,0,0,1,5.348,5.4,5.373,5.373,0,0,1-5.4,5.345,5.371,5.371,0,0,1-5.348-5.4,5.377,5.377,0,0,1,5.4-5.348" transform="translate(-238.658 419.309)" fill="#4790f7"/>
      </g>
      <g id="Grupo_16" data-name="Grupo 16" transform="translate(2.915 2.915)">
        <path id="path468" d="M633.083-229.915a9.659,9.659,0,0,0-9.711,9.609,9.657,9.657,0,0,0,9.612,9.708,9.663,9.663,0,0,0,9.711-9.609,9.659,9.659,0,0,0-9.612-9.708" transform="translate(-228.225 544.035)" fill="#010a85"/>
        <path id="path472" d="M688.867-247.92a4.139,4.139,0,0,0-4.115-4.158,4.137,4.137,0,0,0-4.158,4.118,4.137,4.137,0,0,0,4.115,4.158,4.141,4.141,0,0,0,4.158-4.118" transform="translate(-152.079 514.543)" fill="#010a85"/>
        <path id="path476" d="M733.238-278.846a9.521,9.521,0,0,0,9.568-9.469,9.519,9.519,0,0,0-9.469-9.568,9.513,9.513,0,0,0-9.568,9.469,9.518,9.518,0,0,0,9.469,9.568" transform="translate(-94.626 453.589)" fill="#010a85"/>
        <path id="path500" d="M458.021-247.355a4.168,4.168,0,0,0-4.189,4.146,4.17,4.17,0,0,0,4.146,4.192,4.173,4.173,0,0,0,4.192-4.149,4.168,4.168,0,0,0-4.149-4.189" transform="translate(-453.832 520.827)" fill="#010a85"/>
        <path id="path524" d="M732.872-254.286a8.379,8.379,0,0,0-8.425,8.338,8.386,8.386,0,0,0,8.34,8.428,8.386,8.386,0,0,0,8.425-8.341,8.382,8.382,0,0,0-8.341-8.425" transform="translate(-93.723 511.604)" fill="#010a85"/>
        <path id="path548" d="M476.625-314.674A6.589,6.589,0,0,0,470-308.123a6.585,6.585,0,0,0,6.554,6.619,6.583,6.583,0,0,0,6.622-6.551,6.589,6.589,0,0,0-6.554-6.619" transform="translate(-432.314 431.246)" fill="#010a85"/>
        <path id="path552" d="M547.956-292.179a4.893,4.893,0,0,0-4.916,4.87,4.89,4.89,0,0,0,4.863,4.916,4.9,4.9,0,0,0,4.919-4.866,4.9,4.9,0,0,0-4.866-4.919" transform="translate(-335.123 461.18)" fill="#010a85"/>
        <path id="path556" d="M551.044-343.626A10.53,10.53,0,0,0,561.629-354.1a10.532,10.532,0,0,0-10.476-10.588,10.535,10.535,0,0,0-10.588,10.479,10.533,10.533,0,0,0,10.479,10.585" transform="translate(-338.416 364.69)" fill="#010a85"/>
        <path id="path560" d="M619.994-324.585a5.377,5.377,0,0,0-5.4,5.348,5.371,5.371,0,0,0,5.348,5.4,5.373,5.373,0,0,0,5.4-5.345,5.378,5.378,0,0,0-5.348-5.4" transform="translate(-239.907 418.058)" fill="#010a85"/>
      </g>
    </g>
    <g id="Grupo_12" data-name="Grupo 12" transform="translate(1206.435 665.474)">
      <g id="Grupo_17" data-name="Grupo 17" transform="translate(0 0)">
        <path id="path482" d="M548.872-129.735A11.534,11.534,0,0,0,537.3-118.273,11.526,11.526,0,0,0,548.754-106.7a11.526,11.526,0,0,0,11.576-11.458A11.531,11.531,0,0,0,548.872-129.735Zm-.016,2.918a8.6,8.6,0,0,1,8.558,8.643,8.6,8.6,0,0,1-8.645,8.558,8.6,8.6,0,0,1-8.555-8.645,8.6,8.6,0,0,1,8.642-8.556" transform="translate(-398.697 237.397)" fill="#4790f7"/>
        <path id="path486" d="M661-49.609a8.292,8.292,0,0,0-8.322,8.239,8.294,8.294,0,0,0,8.238,8.322,8.29,8.29,0,0,0,8.319-8.238A8.288,8.288,0,0,0,661-49.609Zm-.016,2.918a5.364,5.364,0,0,1,5.336,5.389,5.361,5.361,0,0,1-5.388,5.335,5.362,5.362,0,0,1-5.336-5.389,5.364,5.364,0,0,1,5.388-5.335" transform="translate(-245.164 344.02)" fill="#4790f7"/>
        <path id="path490" d="M741.448-91.684a13.312,13.312,0,0,0-13.366,13.229,13.31,13.31,0,0,0,13.229,13.365,13.314,13.314,0,0,0,13.366-13.229A13.318,13.318,0,0,0,741.448-91.684Zm-.015,2.918a10.379,10.379,0,0,1,10.326,10.431,10.379,10.379,0,0,1-10.432,10.327A10.381,10.381,0,0,1,731-78.44a10.382,10.382,0,0,1,10.435-10.325" transform="translate(-144.817 288.031)" fill="#4790f7"/>
        <path id="path506" d="M567.731-175.928a12.434,12.434,0,0,0-12.483,12.356A12.43,12.43,0,0,0,567.6-151.088a12.434,12.434,0,0,0,12.48-12.356A12.43,12.43,0,0,0,567.731-175.928Zm-.015,2.918a9.5,9.5,0,0,1,9.453,9.55,9.5,9.5,0,0,1-9.553,9.453,9.5,9.5,0,0,1-9.454-9.55,9.5,9.5,0,0,1,9.553-9.453" transform="translate(-374.808 175.928)" fill="#4790f7"/>
        <path id="path510" d="M485.524-164.676a7.664,7.664,0,0,0-7.694,7.617,7.664,7.664,0,0,0,7.617,7.7,7.666,7.666,0,0,0,7.695-7.617A7.665,7.665,0,0,0,485.524-164.676Zm-.016,2.918a4.739,4.739,0,0,1,4.717,4.764,4.738,4.738,0,0,1-4.764,4.714,4.739,4.739,0,0,1-4.717-4.764,4.736,4.736,0,0,1,4.764-4.714" transform="translate(-477.829 190.901)" fill="#4790f7"/>
        <path id="path514" d="M489.092-149.417a8.284,8.284,0,0,0-8.316,8.232,8.284,8.284,0,0,0,8.232,8.316,8.283,8.283,0,0,0,8.319-8.232A8.283,8.283,0,0,0,489.092-149.417Zm-.016,2.915a5.359,5.359,0,0,1,5.333,5.385,5.359,5.359,0,0,1-5.385,5.333,5.358,5.358,0,0,1-5.33-5.385,5.358,5.358,0,0,1,5.382-5.333" transform="translate(-473.908 211.205)" fill="#4790f7"/>
        <path id="path518" d="M524.9-121.44a7.12,7.12,0,0,0-7.147,7.074,7.116,7.116,0,0,0,7.073,7.147,7.119,7.119,0,0,0,7.148-7.074A7.117,7.117,0,0,0,524.9-121.44Zm-.015,2.915a4.2,4.2,0,0,1,4.173,4.217,4.2,4.2,0,0,1-4.217,4.174,4.2,4.2,0,0,1-4.174-4.216,4.2,4.2,0,0,1,4.217-4.175" transform="translate(-424.697 248.435)" fill="#4790f7"/>
        <path id="path522" d="M698.684-121.892a10.225,10.225,0,0,0-10.265,10.159,10.221,10.221,0,0,0,10.156,10.259,10.219,10.219,0,0,0,10.261-10.157,10.217,10.217,0,0,0-10.152-10.261Zm-.016,2.918a7.29,7.29,0,0,1,7.253,7.328,7.293,7.293,0,0,1-7.331,7.256,7.293,7.293,0,0,1-7.253-7.331,7.292,7.292,0,0,1,7.331-7.253" transform="translate(-197.596 247.833)" fill="#4790f7"/>
        <path id="path542" d="M521.369-24.264A10.435,10.435,0,0,0,510.9-13.9a10.435,10.435,0,0,0,10.367,10.47,10.422,10.422,0,0,0,10.47-10.364,10.429,10.429,0,0,0-10.364-10.472Zm-.012,2.918a7.5,7.5,0,0,1,7.461,7.538,7.5,7.5,0,0,1-7.539,7.465,7.5,7.5,0,0,1-7.461-7.539,7.5,7.5,0,0,1,7.539-7.464" transform="translate(-433.828 377.747)" fill="#4790f7"/>
        <path id="path566" d="M769.054-82.307a9.876,9.876,0,0,0-9.913,9.814,9.872,9.872,0,0,0,9.814,9.916,9.879,9.879,0,0,0,9.916-9.817A9.877,9.877,0,0,0,769.054-82.307Zm-.016,2.915a6.949,6.949,0,0,1,6.914,6.986,6.949,6.949,0,0,1-6.983,6.914,6.953,6.953,0,0,1-6.914-6.986,6.951,6.951,0,0,1,6.983-6.914" transform="translate(-103.487 300.509)" fill="#4790f7"/>
      </g>
      <g id="Grupo_18" data-name="Grupo 18" transform="translate(2.915 2.918)">
        <path id="path480" d="M547.19-128.482a8.6,8.6,0,0,0-8.642,8.556,8.6,8.6,0,0,0,8.555,8.645,8.6,8.6,0,0,0,8.645-8.558,8.6,8.6,0,0,0-8.558-8.643" transform="translate(-399.946 236.145)" fill="#4790f7"/>
        <path id="path484" d="M659.314-48.357a5.364,5.364,0,0,0-5.388,5.335,5.36,5.36,0,0,0,5.336,5.389,5.361,5.361,0,0,0,5.389-5.335,5.364,5.364,0,0,0-5.336-5.389" transform="translate(-246.413 342.768)" fill="#4790f7"/>
        <path id="path488" d="M739.768-90.431a10.382,10.382,0,0,0-10.435,10.325,10.38,10.38,0,0,0,10.33,10.432A10.379,10.379,0,0,0,750.095-80a10.379,10.379,0,0,0-10.327-10.431" transform="translate(-146.068 286.78)" fill="#4790f7"/>
        <path id="path504" d="M566.052-174.676a9.5,9.5,0,0,0-9.553,9.453,9.5,9.5,0,0,0,9.453,9.55,9.5,9.5,0,0,0,9.553-9.453,9.5,9.5,0,0,0-9.453-9.55" transform="translate(-376.059 174.676)" fill="#4790f7"/>
        <path id="path508" d="M483.8-153.945a4.738,4.738,0,0,0,4.764-4.714,4.741,4.741,0,0,0-4.717-4.764,4.736,4.736,0,0,0-4.764,4.714,4.739,4.739,0,0,0,4.717,4.764" transform="translate(-479.08 189.649)" fill="#4790f7"/>
        <path id="path512" d="M487.411-148.166a5.356,5.356,0,0,0-5.382,5.333,5.358,5.358,0,0,0,5.33,5.385,5.359,5.359,0,0,0,5.385-5.333,5.359,5.359,0,0,0-5.333-5.385" transform="translate(-475.157 209.952)" fill="#4790f7"/>
        <path id="path516" d="M523.225-120.189a4.2,4.2,0,0,0-4.217,4.175,4.2,4.2,0,0,0,4.173,4.216,4.2,4.2,0,0,0,4.217-4.174,4.2,4.2,0,0,0-4.174-4.217" transform="translate(-425.948 247.181)" fill="#4790f7"/>
        <path id="path520" d="M697-120.64a7.292,7.292,0,0,0-7.331,7.253,7.293,7.293,0,0,0,7.253,7.331,7.292,7.292,0,0,0,7.331-7.256A7.29,7.29,0,0,0,697-120.64" transform="translate(-198.845 246.581)" fill="#4790f7"/>
        <path id="path540" d="M519.688-23.012a7.5,7.5,0,0,0-7.539,7.464,7.5,7.5,0,0,0,7.461,7.539,7.5,7.5,0,0,0,7.539-7.465,7.5,7.5,0,0,0-7.461-7.538" transform="translate(-435.075 376.495)" fill="#4790f7"/>
        <path id="path564" d="M767.374-81.056a6.951,6.951,0,0,0-6.983,6.914,6.953,6.953,0,0,0,6.914,6.986,6.95,6.95,0,0,0,6.983-6.914,6.95,6.95,0,0,0-6.914-6.986" transform="translate(-104.738 299.256)" fill="#4790f7"/>
      </g>
    </g>
  </g>
</svg>
