<svg xmlns="http://www.w3.org/2000/svg" width="140.773" height="28.059" viewBox="0 0 140.773 28.059">
  <g id="Grupo_4" data-name="Grupo 4" transform="translate(-747.08 -840.575)">
    <g id="Subtração_1" data-name="Subtração 1" transform="translate(859.835 840.575)" fill="none">
      <path d="M14.094,28.059H5a5.006,5.006,0,0,1-5-5V5A5.006,5.006,0,0,1,5,0h9.094V3.491a10.6,10.6,0,0,0,0,21.207v3.36Z" stroke="none"/>
      <path d="M 13.09400081634521 27.05930137634277 L 13.09400081634521 25.65509986877441 C 7.162723541259766 25.14615440368652 2.491100788116455 20.15533828735352 2.491100788116455 14.09400081634521 C 2.491100788116455 8.033779144287109 7.1622633934021 3.043232679367065 13.09400081634521 2.533947706222534 L 13.09400081634521 1.000000715255737 L 5.000401020050049 1.000000715255737 C 2.794570922851562 1.000000715255737 1.000000834465027 2.794570684432983 1.000000834465027 5.000400543212891 L 1.000000834465027 23.05980110168457 C 1.000000834465027 25.2651309967041 2.794570922851562 27.05930137634277 5.000401020050049 27.05930137634277 L 13.09400081634521 27.05930137634277 M 14.09400081634521 28.05930137634277 L 14.0930004119873 28.05930137634277 L 5.000401020050049 28.05930137634277 C 2.243170976638794 28.05930137634277 8.850097401591484e-07 25.81653022766113 8.850097401591484e-07 23.05980110168457 L 8.850097401591484e-07 5.000400543212891 C 8.850097401591484e-07 2.243170738220215 2.243170976638794 6.881713829898217e-07 5.000401020050049 6.881713829898217e-07 L 14.09400081634521 6.881713829898217e-07 L 14.09400081634521 3.491100788116455 C 8.246271133422852 3.492100715637207 3.491100788116455 8.248090744018555 3.491100788116455 14.09400081634521 C 3.491100788116455 19.94095993041992 8.247540473937988 24.69780158996582 14.09400081634521 24.69780158996582 L 14.09400081634521 28.05830001831055 L 14.09400081634521 28.05930137634277 Z" stroke="none" fill="#fff"/>
    </g>
    <path id="Subtração_2" data-name="Subtração 2" d="M19.526,28.059H10.432V24.7H10.6a10.6,10.6,0,0,0,0-21.207h-.171V0h9.094a5.006,5.006,0,0,1,5,5V23.06A5.006,5.006,0,0,1,19.526,28.059Z" transform="translate(863.326 840.575)" fill="#fff"/>
    <text id="TI" transform="translate(866.947 860.101)" fill="#fff" font-size="15" font-family="Barlow-Black, Barlow Black" font-weight="800"><tspan x="0" y="0">TI</tspan></text>
    <text id="RESIDÊNCIA" transform="translate(747.08 861.515)" fill="#fff" font-size="19" font-family="Barlow-Black, Barlow Black" font-weight="800"><tspan x="0" y="0">RESIDÊNCIA</tspan></text>
  </g>
</svg>
