<svg xmlns="http://www.w3.org/2000/svg" width="1237" height="742" viewBox="0 0 1237 742">
  <g id="Grupo_58" data-name="Grupo 58" transform="translate(-342 -232)">
    <g id="Grupo_46" data-name="Grupo 46">
      <rect id="Retângulo_57" data-name="Retângulo 57" width="1237" height="742" transform="translate(342 232)" fill="#fff"/>
      <path id="Interseção_2" data-name="Interseção 2" d="M1140.672-751.5,1111.9-765.46a5.359,5.359,0,0,1-4.645,2.687h-.029a5.334,5.334,0,0,1-1.407-.194l-4.072,11.467h-.8l4.162-11.719a5.4,5.4,0,0,1-2.438-2.132L1075.77-751.5h-1.643l28.2-14.519a5.339,5.339,0,0,1-.436-2.14,5.343,5.343,0,0,1,.355-1.891L984.964-824.706a5.929,5.929,0,0,1-5.2,3.088h-.031a6.011,6.011,0,0,1-.652-.039l-3.172,17.574-9.49,52.583h-.763l12.687-70.29a5.955,5.955,0,0,1-3.922-3.19l-24.16,9.757-94.68,38.239a6.15,6.15,0,0,1,.319,1.99,6.139,6.139,0,0,1-1.154,3.562L879.31-751.5h-1.191l-23.846-19.35a6.165,6.165,0,0,1-4.549,2h-.031a6.136,6.136,0,0,1-1.833-.287L841.071-751.5h-.8l6.892-17.9a6.224,6.224,0,0,1-2.264-1.769l-28,19.674h-1.306l28.876-20.288a6.14,6.14,0,0,1-.743-1.775L725-752.162c.007.1.012.2.011.3q0,.182-.02.36h-5.843a2.211,2.211,0,0,1-.032-.39,2.2,2.2,0,0,1,2.208-2.184,2.2,2.2,0,0,1,1.623.728,2.192,2.192,0,0,0-1.623-.729h-.012a2.2,2.2,0,0,0-2.2,2.184,2.2,2.2,0,0,0,.033.391h-1.513a3.712,3.712,0,0,1-.019-.4,3.7,3.7,0,0,1,3.716-3.679,3.7,3.7,0,0,1,2.965,1.516l98.884-57.905a5.018,5.018,0,0,1-.516-2.249,5.059,5.059,0,0,1,5.078-5.027,5.065,5.065,0,0,1,4.846,3.7l56.651-11.257a4.208,4.208,0,0,1-.023-.467,4.2,4.2,0,0,1,4.215-4.173,4.2,4.2,0,0,1,3.762,2.384l99.319-37.022a4.324,4.324,0,0,1-.157-1.18,4.339,4.339,0,0,1,4.355-4.311,4.317,4.317,0,0,1,2.638.914l59.9-64.658a3.93,3.93,0,0,1-1-2.642,3.945,3.945,0,0,1,2.443-3.624l-28.382-93.718a3.668,3.668,0,0,1-.693.066h-.018a3.648,3.648,0,0,1-3.626-3.663,3.65,3.65,0,0,1,3.663-3.628,3.67,3.67,0,0,1,.529.042l18.5-71.254a4.9,4.9,0,0,1-3.3-4.649,4.9,4.9,0,0,1,4.915-4.865,4.887,4.887,0,0,1,3.817,1.869l76.854-51.4a6.88,6.88,0,0,1-.969-3.564,6.928,6.928,0,0,1,6.953-6.883,6.916,6.916,0,0,1,1.952.291l42.708-118.6a.372.372,0,0,1,.326-.248l34.585-6.852v.765l-34.1,6.755,34.1,141.6v3.21l-14.986-62.227L1187.87-1300.1l-42.282,117.423a6.929,6.929,0,0,1,4.226,6.407,6.88,6.88,0,0,1-.635,2.857l73.32,38.687v.849l-73.672-38.872a6.928,6.928,0,0,1-5.553,3.353l.028,36.656.028,36.485a4.027,4.027,0,0,1,3.125,2.02l53.434-23.974,22.611-10.146v.825l-48.8,21.895-26.933,12.085a4.011,4.011,0,0,1,.214,1.316,4,4,0,0,1-.635,2.144l76.156,59.454v.952l-48.622-37.958-28-21.856a4.024,4.024,0,0,1-2.036,1.163l13.2,102.182,3.98,30.8c.148-.01.3-.015.447-.015h.031a6.373,6.373,0,0,1,4.649,2.047l56.346-46.441v.973l-11.126,9.169-44.743,36.878a6.355,6.355,0,0,1,1.229,3.8,6.365,6.365,0,0,1-.329,2l54.969,22.07v.809l-55.25-22.182a6.4,6.4,0,0,1-5.777,3.664h-.033a6.356,6.356,0,0,1-1.99-.327l-17.422,43.516a5.933,5.933,0,0,1,3.378,5.262l40.891,1.977,36.2,1.751v.751l-4.141-.2-72.99-3.529a5.879,5.879,0,0,1-.811,2.391l5.366,3.706,72.576,50.13v.913l-78.369-54.131a5.919,5.919,0,0,1-4.649,2.254h-.031a6,6,0,0,1-1.071-.1l-2.489,9.722L1108.948-773.22a5.384,5.384,0,0,1,3.5,3.739L1222.5-790v.763l-109.917,20.495a5.551,5.551,0,0,1,.034.637,5.336,5.336,0,0,1-.384,1.971l1.931.937,28.228,13.7Zm-415.994-1.913a3.672,3.672,0,0,1,.19.513l118.72-21.4a6.214,6.214,0,0,1-.043-.758,6.179,6.179,0,0,1,2.832-5.158L829.86-809.61a5.034,5.034,0,0,1-2.142.476h-.026a5.052,5.052,0,0,1-4.131-2.184Zm382.876-10.87c-.1.007-.2.011-.3.011h-.021Q1107.4-764.271,1107.554-764.283Zm-4.155-3.868a3.844,3.844,0,0,0,.271,1.444,3.863,3.863,0,0,1-.27-1.444,3.879,3.879,0,0,1,.218-1.262h0A3.837,3.837,0,0,0,1103.4-768.151Zm.535-1.944h0a3.69,3.69,0,0,1,.255-.378h0A3.843,3.843,0,0,0,1103.935-770.095Zm6.314-.477Zm-.029-.035a3.872,3.872,0,0,0-1.645-1.154A3.872,3.872,0,0,1,1110.22-770.607ZM982.852-832.6a5.926,5.926,0,0,1,2.836,5.085,5.9,5.9,0,0,1-.406,2.127l97.086,45.241,20.2,9.415a5.362,5.362,0,0,1,.518-.767l-23.531-21.882-75.964-70.638a4.315,4.315,0,0,1-2.9,1.12h-.023a4.3,4.3,0,0,1-1.66-.339ZM1104.7-771.023h0a3.847,3.847,0,0,1,2.393-.966h0A3.844,3.844,0,0,0,1104.7-771.023Zm3.144-.923h0ZM1005.01-867.581q.015.185.013.373a4.319,4.319,0,0,1-.918,2.641l67.386,62.662,32.108,29.858a5.345,5.345,0,0,1,3.579-1.445l5.4-97.819.631-11.44a3.667,3.667,0,0,1-2.951-2.634Zm128.887-24.4-16.52,4.936a3.607,3.607,0,0,1,.064.7,3.663,3.663,0,0,1-3.485,3.636l-6.027,109.259c.1.013.194.027.291.045l22.19-86.7,7.242-28.3a5.955,5.955,0,0,1-3.731-3.583ZM845.047-775.049v0a4.669,4.669,0,0,1,2.066-3.857h0A4.671,4.671,0,0,0,845.047-775.049Zm8.86-2.068a4.707,4.707,0,0,0-.9-1.241h0A4.7,4.7,0,0,1,853.906-777.118Zm1.695-4.346-1.634,1.953a6.2,6.2,0,0,1,1.333,1.83l118.84-48a5.891,5.891,0,0,1-.288-1.471l-14.581.051-61.681.218a4.2,4.2,0,0,1-4.18,3.831h-.02a4.172,4.172,0,0,1-2.371-.75Zm-5.854,1.763a4.654,4.654,0,0,1,2.678.859h0a4.663,4.663,0,0,0-2.679-.859h-.025a4.662,4.662,0,0,0-1.956.427h0a4.663,4.663,0,0,1,1.957-.427Zm.008-1.5a6.145,6.145,0,0,1,3.635,1.209l37.053-44.285a4.194,4.194,0,0,1-1.058-1.779L832.735-814.8a5.156,5.156,0,0,1,.037.638,5.054,5.054,0,0,1-2.258,4.183l9.667,17.205,6.85,12.19a6.141,6.141,0,0,1,2.692-.618ZM824.48-812.725a3.542,3.542,0,0,1-.313-1.479A3.542,3.542,0,0,0,824.48-812.725Zm-.313-1.481h0a3.554,3.554,0,0,1,3.57-3.535,3.559,3.559,0,0,1,3.336,2.383,3.558,3.558,0,0,0-3.336-2.384h-.018A3.553,3.553,0,0,0,824.167-814.206Zm151.992-10.771a4.416,4.416,0,0,1-.344-.567A4.416,4.416,0,0,0,976.159-824.977Zm-.625-1.264h0a4.37,4.37,0,0,1-.178-.913h0A4.426,4.426,0,0,0,975.533-826.241Zm-84.814-1.013h0a2.694,2.694,0,0,1,2.707-2.68,2.692,2.692,0,0,1,2.344,1.392,2.692,2.692,0,0,0-2.344-1.393h-.015A2.692,2.692,0,0,0,890.719-827.254Zm91.432-4.015a4.42,4.42,0,0,1,2.038,3.711,4.422,4.422,0,0,0-2.037-3.712Zm-84.695,2.92a4.11,4.11,0,0,1,.13.717l71.018-.248,5.244-.018a5.931,5.931,0,0,1,5.944-5.572,5.888,5.888,0,0,1,2.4.52l16.155-30.639a4.354,4.354,0,0,1-1.569-1.782Zm77.9.445h0a4.426,4.426,0,0,1,4.432-4.065,4.432,4.432,0,0,1,1.7.349h0a4.432,4.432,0,0,0-1.7-.349h-.022A4.426,4.426,0,0,0,975.353-827.9Zm23.325-37.334a2.822,2.822,0,0,1-.488-.661A2.8,2.8,0,0,0,998.678-865.237Zm-.821-2.009a2.871,2.871,0,0,0,.07.644h0a2.863,2.863,0,0,1-.07-.643,2.833,2.833,0,0,1,2.848-2.819,2.816,2.816,0,0,1,1.619.518,2.811,2.811,0,0,0-1.62-.519h-.015A2.834,2.834,0,0,0,997.857-867.245Zm60.325-42.7-53.815,40.421a4.315,4.315,0,0,1,.518,1.2l105.247-17.806c-.005-.085-.008-.171-.008-.257a3.638,3.638,0,0,1,.526-1.868l-30.573-23.03-6.88-5.183a4.247,4.247,0,0,1-3.16,1.407h-.023a4.242,4.242,0,0,1-3.141-1.41Zm-54.9,41.559c-.035-.08-.074-.158-.116-.233C1003.2-868.541,1003.243-868.462,1003.278-868.383Zm.619-1.76.017.019,62.506-46.946a4.24,4.24,0,0,1-.643-2.268,4.267,4.267,0,0,1,3.032-4.055l-2.2-10.621a3.935,3.935,0,0,1-.427.023h-.022a3.918,3.918,0,0,1-2.367-.807Zm107.727-16.236a2.156,2.156,0,0,1,.235-.964h0A2.151,2.151,0,0,0,1111.624-886.379Zm2.17-2.145a2.163,2.163,0,0,1,1.9,1.163,2.162,2.162,0,0,0-1.9-1.164h-.012a2.151,2.151,0,0,0-1.472.581h0a2.151,2.151,0,0,1,1.471-.58Zm.007-1.5a3.664,3.664,0,0,1,3.361,2.257l16.544-4.943a5.884,5.884,0,0,1-.151-1.364,5.9,5.9,0,0,1,.239-1.639L1091.1-911.25l-17.21-6.262a4.151,4.151,0,0,1-.244.448l37.455,28.211a3.654,3.654,0,0,1,2.682-1.171Zm21.255-4.044h0a4.414,4.414,0,0,1,.152-1.131A4.407,4.407,0,0,0,1135.056-894.067Zm.409-1.837h0a4.425,4.425,0,0,1,4.037-2.564,4.435,4.435,0,0,1,1.268.192h0a4.433,4.433,0,0,0-1.268-.192h-.022A4.427,4.427,0,0,0,1135.464-895.9Zm-33.224-33.462-28.054,9.1a4.234,4.234,0,0,1,.107.973,4.277,4.277,0,0,1-.143,1.076l12.325,4.486,47.577,17.314a5.939,5.939,0,0,1,5.459-3.552,5.907,5.907,0,0,1,1.82.3l7.252-18.114,10.17-25.4a6.43,6.43,0,0,1-3.233-3.456Zm40.073,31.923a4.48,4.48,0,0,0-.844-.554h0A4.456,4.456,0,0,1,1142.312-897.443Zm-75.034-21.886a2.741,2.741,0,0,0,.225,1.105,2.75,2.75,0,0,1-.224-1.1,2.759,2.759,0,0,1,1.644-2.51A2.756,2.756,0,0,0,1067.279-919.329Zm5.155-1.346a2.756,2.756,0,0,0-2.349-1.4A2.756,2.756,0,0,1,1072.434-920.676Zm-2.378-2.9a4.266,4.266,0,0,1,3.9,2.591l81.333-26.38c-.042-.165-.079-.333-.109-.5l-64.96,7.528-20.1,2.329c0,.032,0,.066,0,.1a3.948,3.948,0,0,1-2.776,3.744l.508,2.452,1.691,8.169a4.369,4.369,0,0,1,.488-.028Zm.029,1.5h0Zm-5.946-14.529a2.429,2.429,0,0,1-.394-1.343A2.425,2.425,0,0,0,1064.138-936.6Zm-.337-1.855a2.439,2.439,0,0,1,1.325-1.673A2.437,2.437,0,0,0,1063.8-938.455Zm4.733-.126h0a2.444,2.444,0,0,0-1.227-1.513A2.446,2.446,0,0,1,1068.534-938.581Zm-2.331-3.289a3.948,3.948,0,0,1,3.832,3.116l85.056-9.856c-.007-.13-.011-.262-.01-.4a6.347,6.347,0,0,1,.982-3.367l-117.72-84.088a3.659,3.659,0,0,1-1.32.949l28.382,93.719a3.963,3.963,0,0,1,.778-.077Zm1.1,1.775,0,0Zm91.317-4.9a4.908,4.908,0,0,1-1.671-2.11A4.9,4.9,0,0,0,1158.621-945Zm-1.9-2.825c-.017-.07-.032-.141-.046-.212h0C1156.685-947.966,1156.7-947.9,1156.718-947.825Zm-.132-.958c0-.071,0-.142,0-.214C1156.582-948.926,1156.583-948.855,1156.586-948.784Zm.006-.495a4.863,4.863,0,0,1,.694-2.221A4.859,4.859,0,0,0,1156.591-949.279Zm9.225-1.939a5.014,5.014,0,0,0-.344-.567A5.014,5.014,0,0,1,1165.817-951.217Zm-8.095-.895h0a4.885,4.885,0,0,1,2.751-1.649h0A4.889,4.889,0,0,0,1157.722-952.112Zm3.775-1.75a4.869,4.869,0,0,1,3.5,1.5h0a4.875,4.875,0,0,0-3.5-1.5h-.026c-.085,0-.168,0-.251.006h0c.083,0,.167-.006.25-.006Zm-122.47-86.29a3.615,3.615,0,0,1,.232,1.3,3.626,3.626,0,0,1-.477,1.783L1156.5-952.984a6.4,6.4,0,0,1,3.781-2.268l-17.18-132.985-.145,0h-.02a4.019,4.019,0,0,1-3.392-1.9Zm-5.559,1.267a2.139,2.139,0,0,0,.483,1.368,2.143,2.143,0,0,1-.482-1.368,2.143,2.143,0,0,1,2.156-2.132c.052,0,.1,0,.155.006h0c-.052,0-.1-.005-.157-.006h-.012A2.145,2.145,0,0,0,1033.467-1038.884Zm3.04-1.937a2.151,2.151,0,0,1,.768.593,2.156,2.156,0,0,0-.768-.594Zm17.023-65.57-16.642,64.1a3.673,3.673,0,0,1,1.8,1.466l100.517-49.984a3.981,3.981,0,0,1-.269-1.465,4.068,4.068,0,0,1,.079-.775l-64.1-19.3-14.112-4.248a4.9,4.9,0,0,1-4.559,3.124h-.026a4.827,4.827,0,0,1-.836-.076Zm89.378,16.658a2.52,2.52,0,0,1-2.011-1.073A2.515,2.515,0,0,0,1142.908-1089.734Zm-2.465-2.53h0a2.586,2.586,0,0,1,.025-.347A2.583,2.583,0,0,0,1140.443-1092.263Zm.241-1.066h0a2.524,2.524,0,0,1,1.9-1.41h0A2.522,2.522,0,0,0,1140.684-1093.329Zm-25.258-64.152-54.918,36.729a4.851,4.851,0,0,1,.629,2.422,4.9,4.9,0,0,1-.113,1.021l78.212,23.544a4.029,4.029,0,0,1,3.344-2.486l-.057-73.142a6.914,6.914,0,0,1-5.161-2.758Zm27.9,62.741a2.5,2.5,0,0,1,1.1.445,2.5,2.5,0,0,0-1.1-.445Zm-90.472-23.633a3.382,3.382,0,0,0,.637,2,3.379,3.379,0,0,1-.636-1.994,3.389,3.389,0,0,1,3.407-3.37,3.384,3.384,0,0,1,2.573,1.2,3.383,3.383,0,0,0-2.574-1.205h-.018A3.39,3.39,0,0,0,1052.859-1118.373Zm6.78.035a3.364,3.364,0,0,0-.38-1.578h0A3.373,3.373,0,0,1,1059.638-1118.338Zm80.257-53.449a5.458,5.458,0,0,1-1.286-1.2h0A5.464,5.464,0,0,0,1139.9-1171.787Zm-2.421-4.542a5.4,5.4,0,0,0,.716,2.722h0a5.4,5.4,0,0,1-.716-2.721,5.421,5.421,0,0,1,5.448-5.392,5.418,5.418,0,0,1,1.449.2,5.39,5.39,0,0,0-1.45-.205h-.027A5.421,5.421,0,0,0,1137.475-1176.33Zm10.838.056a5.4,5.4,0,0,0-.268-1.714A5.4,5.4,0,0,1,1148.313-1176.274Zm-.276-1.739a.014.014,0,0,0,0-.005A.014.014,0,0,1,1148.036-1178.013Zm-2.2-2.839a5.435,5.435,0,0,0-.759-.41A5.435,5.435,0,0,1,1145.839-1180.851Z" transform="translate(356 1725)" fill="#4790f7"/>
      <path id="Interseção_1" data-name="Interseção 1" d="M288.2-686.608l126.308-64.928-84.2-148.577a4.24,4.24,0,0,1-.589.217l-.023.006a4.232,4.232,0,0,1-2.036.068l-7,23L288.2-770.233v-2.573l34.659-113.82,4.085-13.416a4.263,4.263,0,0,1-2.511-2.8,4.183,4.183,0,0,1-.13-.661l-36.1,1.011v-.752l36.082-1.011a4.262,4.262,0,0,1,.447-1.656L288.2-928.479v-.883l36.923,22.814a4.242,4.242,0,0,1,1.457-1.237l-38.38-93.682v-1.988l39.076,95.385.086-.025.023-.007a4.268,4.268,0,0,1,4.159,1.079L374.763-943.5l22.559-19.04a4.021,4.021,0,0,1-.569-1.206,4,4,0,0,1,.019-2.236l-106.517-42.988a6.5,6.5,0,0,1-2.051,2.475v-2.033a4.993,4.993,0,0,0,.658-1h0a5,5,0,0,1-.657,1v-9.394l18.363-26.713,16.139-23.478h.91l-35.242,51.27a6.447,6.447,0,0,1,2.263,3.358,6.434,6.434,0,0,1-.1,3.82l73.58,29.7,32.938,13.292a4.016,4.016,0,0,1,1.636-1.678l-40.856-94.586-2.234-5.172h.817l42.961,99.46.139-.042.019-.005a4.02,4.02,0,0,1,3.785.892l82.848-75.752a3.61,3.61,0,0,1-.581-1.184,3.619,3.619,0,0,1-.032-1.845l-60.649-21.523h2.246l58.656,20.815a3.659,3.659,0,0,1,1.007-1.276L474.2-1068.111h.894l12.352,19.131a3.69,3.69,0,0,1,.647-.255l.018,0a3.648,3.648,0,0,1,4.495,2.521,3.65,3.65,0,0,1-2.521,4.5,3.681,3.681,0,0,1-.519.106l1.856,73.593a4.9,4.9,0,0,1,4.455,3.559,4.9,4.9,0,0,1-3.384,6.032,4.882,4.882,0,0,1-4.183-.745L428.6-889.086a6.88,6.88,0,0,1,1.913,3.159,6.927,6.927,0,0,1-4.786,8.533,6.876,6.876,0,0,1-1.957.259l-8.362,125.78a.371.371,0,0,1-.245.328L288.2-685.762Zm42.763-213.876,42.409,74.835,41.365,72.992,8.278-124.529a6.932,6.932,0,0,1-5.828-4.995,6.887,6.887,0,0,1-.177-2.921l-84.387-17.657A4.292,4.292,0,0,1,330.967-900.483Zm96.663,12.544a5.393,5.393,0,0,1,1.438,2.417,5.42,5.42,0,0,1-3.75,6.684,5.424,5.424,0,0,1-1.449.2h0a5.425,5.425,0,0,0,1.45-.2l.026-.007a5.42,5.42,0,0,0,3.724-6.677,5.392,5.392,0,0,0-1.439-2.419Zm-4.511,9.256a5.441,5.441,0,0,1-.843-.185A5.441,5.441,0,0,0,423.119-878.684Zm-3.735-2.3,0,0Zm-.018-.026a5.407,5.407,0,0,1-.73-1.574A5.407,5.407,0,0,0,419.366-881.014Zm-66.314-43.176L332.035-906.45a4.242,4.242,0,0,1,.616,1.3,4.237,4.237,0,0,1,.13,1.658l84.388,17.656a6.926,6.926,0,0,1,4.413-4.754l-10.13-35.229-10.084-35.064a4.023,4.023,0,0,1-3.56-1.08Zm74,35.766h0a5.454,5.454,0,0,0-1.567-.8A5.447,5.447,0,0,1,427.056-888.423Zm.969-1.146,17.042-20.148,42.666-50.443a4.863,4.863,0,0,1-1.273-2.155,4.929,4.929,0,0,1-.173-1.013L404.618-964.4a4.031,4.031,0,0,1-2.529,3.312L422.3-890.8a6.9,6.9,0,0,1,1.546-.176A6.942,6.942,0,0,1,428.026-889.569Zm-98.731-11.765.011,0a2.729,2.729,0,0,0,.263-.09h0c-.085.034-.174.064-.264.09l-.011,0a2.761,2.761,0,0,1-1.19.068A2.751,2.751,0,0,0,329.295-901.334Zm-1.907-.15h0a2.761,2.761,0,0,1-1.5-1.762A2.758,2.758,0,0,0,327.388-901.484Zm2.835-.313h0a2.787,2.787,0,0,0,.927-1.271h0A2.778,2.778,0,0,1,330.223-901.8Zm1.088-2.208a2.715,2.715,0,0,0-.039-.451A2.715,2.715,0,0,1,331.31-904.005Zm160.775-56.371.017-.005a3.389,3.389,0,0,0,2.329-4.174,3.372,3.372,0,0,0-1.162-1.741,3.376,3.376,0,0,1,1.161,1.741,3.39,3.39,0,0,1-2.346,4.179,3.37,3.37,0,0,1-1.608.056A3.377,3.377,0,0,0,492.086-960.377Zm-2.758-.417-.048-.031Zm-.621-.516a3.368,3.368,0,0,1-.8-1.412A3.368,3.368,0,0,0,488.706-961.309Zm-87.756-1.026a2.51,2.51,0,0,1-1.175-.126A2.5,2.5,0,0,0,400.95-962.335Zm.721-.208h0a2.519,2.519,0,0,0,1.435-1.88A2.524,2.524,0,0,1,401.671-962.543Zm2.158-4.711a3.992,3.992,0,0,1,.661,1.334,4.026,4.026,0,0,1,.138.767l66.935.881,14.737.193a4.9,4.9,0,0,1,3.521-4.26l.025-.007a4.929,4.929,0,0,1,.824-.157l-.185-7.385-1.672-66.208a3.67,3.67,0,0,1-2.137-.912Zm-.714,2.081Zm-.024-.142q-.02-.1-.047-.2h0C403.062-965.448,403.078-965.381,403.091-965.315Zm-.886-1.473a2.517,2.517,0,0,0-1.906-.54,2.51,2.51,0,0,1,.321-.021A2.528,2.528,0,0,1,402.206-966.788Zm-1.945-.535.024,0Zm-111.117-42.9h0a4.943,4.943,0,0,0,.168-2.312A4.948,4.948,0,0,1,289.143-1010.225Zm199.632-33.385h0a2.148,2.148,0,0,1-.9-.358A2.152,2.152,0,0,0,488.775-1043.609Zm2.387-2.7a2.144,2.144,0,0,1-1.484,2.644c-.05.014-.1.026-.151.036h0c.051-.01.1-.022.152-.037l.012,0a2.145,2.145,0,0,0,1.472-2.641,2.139,2.139,0,0,0-.841-1.182A2.137,2.137,0,0,1,491.161-1046.31Z" transform="translate(54.296 1300.611)" fill="#4790f7"/>
    </g>
    <g id="business-affiliate-network" transform="translate(579.401 254.878)">
      <g id="Layer_1_110_" transform="translate(0 0)">
        <g id="Grupo_47" data-name="Grupo 47">
          <path id="Caminho_9" data-name="Caminho 9" d="M173.469,145.387l-44.118-41.7a64.654,64.654,0,0,0,8.318-31.31,65.876,65.876,0,1,0-30.832,55.352l44.057,41.649A149.854,149.854,0,0,1,173.469,145.387Z" transform="translate(97.614 86.5)" fill="#5d66de"/>
          <path id="Caminho_10" data-name="Caminho 10" d="M56.084,227.582l58.624-98.653a64.7,64.7,0,1,0-28.44-16.6L27.829,210.7A146.4,146.4,0,0,1,56.084,227.582Z" transform="translate(401.611 -0.911)" fill="#5d66de"/>
          <path id="Caminho_11" data-name="Caminho 11" d="M179.182,20.952A65.372,65.372,0,0,0,117.95,63.774L36.5,55.734c0,.617.093,1.2.093,1.805a149.978,149.978,0,0,1-3.287,31l81.416,8.04a65.335,65.335,0,1,0,64.457-75.629Z" transform="translate(480.695 288.308)" fill="#5d66de"/>
          <path id="Caminho_12" data-name="Caminho 12" d="M91.262,112.032,73.053,32.468A149.1,149.1,0,0,1,40.925,39.89l18.24,79.58a65.237,65.237,0,1,0,32.1-7.438Z" transform="translate(343.856 454.5)" fill="#5d66de"/>
          <path id="Caminho_13" data-name="Caminho 13" d="M221.548,25.37,120.164,59.334a65.316,65.316,0,1,0,10.709,35.693c0-1.512-.324-2.9-.447-4.383L232.134,56.588A149.415,149.415,0,0,1,221.548,25.37Z" transform="translate(0 352.066)" fill="#5d66de"/>
          <ellipse id="Elipse_8" data-name="Elipse 8" cx="153.836" cy="153.836" rx="153.836" ry="153.836" transform="translate(213.894 192.012)" fill="#010a85"/>
        </g>
      </g>
    </g>
    <g id="dollar-symbol" transform="translate(1091.505 271.261)">
      <path id="Caminho_14" data-name="Caminho 14" d="M154.84,43.569a115.481,115.481,0,0,0-11.727-5.309,26.33,26.33,0,0,1-6.438-3.605c-3.823-3.051-3.09-8,1.387-9.964A11.3,11.3,0,0,1,142,23.879a29.922,29.922,0,0,1,14.818,2.932c2.338,1.129,3.11.773,3.9-1.664.832-2.575,1.525-5.19,2.3-7.785a2.719,2.719,0,0,0-1.763-3.625,37.667,37.667,0,0,0-9.35-2.793c-4.239-.654-4.239-.674-4.259-4.933-.02-6-.02-6-6.042-6-.872,0-1.743-.02-2.615,0-2.813.079-3.288.574-3.368,3.407-.04,1.268,0,2.536-.02,3.823-.02,3.764-.04,3.7-3.645,5.012-8.716,3.17-14.1,9.112-14.679,18.621-.515,8.419,3.883,14.1,10.8,18.245,4.259,2.555,8.974,4.061,13.49,6.062a20.038,20.038,0,0,1,4.913,2.892c4.338,3.586,3.546,9.548-1.6,11.806a16.157,16.157,0,0,1-8.657,1.129,38.638,38.638,0,0,1-13.193-3.942c-2.437-1.268-3.15-.931-3.982,1.7-.713,2.278-1.347,4.576-1.981,6.874-.852,3.09-.535,3.823,2.417,5.269a42.125,42.125,0,0,0,11.886,3.407c3.209.515,3.308.654,3.348,3.982.02,1.506.02,3.031.04,4.536.02,1.9.931,3.011,2.892,3.051,2.219.04,4.457.04,6.676-.02a2.54,2.54,0,0,0,2.754-2.872c0-2.06.1-4.14.02-6.2-.1-2.1.812-3.17,2.833-3.724A22.387,22.387,0,0,0,161.6,75.582C170.074,65.281,166.845,50.206,154.84,43.569Z" transform="translate(-116.652 0)" fill="#fff"/>
    </g>
    <g id="folder" transform="translate(865.638 516.904)">
      <path id="Caminho_15" data-name="Caminho 15" d="M159.094,127.966H5.375a5.372,5.372,0,0,1-5.186-6.776L35.1,25.47a5.371,5.371,0,0,1,5.186-3.97H194.008c3.537,0,5.186,3.379,5.186,6.776L164.28,124A5.371,5.371,0,0,1,159.094,127.966Z" transform="translate(0 33.45)" fill="#c1c6ff"/>
      <g id="Grupo_48" data-name="Grupo 48" transform="translate(0.001 0)">
        <path id="Caminho_16" data-name="Caminho 16" d="M172.639,29.541H85.859L68.687,5.5H5.948A5.949,5.949,0,0,0,0,11.448V158.192c.237.007.474.021.7.034L35.1,64.42a5.367,5.367,0,0,1,5.186-3.97h138.3V35.489A5.949,5.949,0,0,0,172.639,29.541Z" transform="translate(0 -5.5)" fill="#5d66de"/>
      </g>
    </g>
    <g id="pie-chart" transform="translate(1193.434 582.32)">
      <path id="Caminho_17" data-name="Caminho 17" d="M31,44.793H75.755A48.2,48.2,0,0,0,31,.038Z" transform="translate(20.53 -0.038)" fill="#fff"/>
      <path id="Caminho_18" data-name="Caminho 18" d="M62.077,60.306A48.024,48.024,0,0,0,74.733,30.962h-42Z" transform="translate(21.678 20.442)" fill="#fff"/>
      <path id="Caminho_19" data-name="Caminho 19" d="M44.881,46.741V.038A48.182,48.182,0,0,0,11.859,79.763Z" transform="translate(0 -0.038)" fill="#fff"/>
      <path id="Caminho_20" data-name="Caminho 20" d="M40.634,32.376,9.962,63.048a48.143,48.143,0,0,0,62.233.889Z" transform="translate(6.597 21.378)" fill="#fff"/>
    </g>
    <g id="group" transform="translate(593.734 650.938)">
      <g id="Grupo_49" data-name="Grupo 49" transform="translate(0)">
        <path id="Caminho_21" data-name="Caminho 21" d="M52.28,0a52.28,52.28,0,1,0,52.28,52.278A52.279,52.279,0,0,0,52.28,0ZM14.2,71.971c0-16.332,14.343-16.328,17.526-20.6l.364-1.947c-4.472-2.267-7.628-7.73-7.628-14.121,0-8.419,5.476-15.244,12.23-15.244,5.318,0,9.83,4.24,11.515,10.149-6.765,2.15-11.769,9.485-11.769,18.2a20.255,20.255,0,0,0,6.252,15.029c-.624.32-1.318.646-1.914.926-3.133,1.47-7.476,3.513-10.609,7.6H14.2ZM52.439,85.079H29.789c0-16.331,14.343-16.326,17.526-20.6l.364-1.947c-4.472-2.267-7.628-7.73-7.628-14.121C40.05,40,45.526,33.17,52.28,33.17S64.51,40,64.51,48.414c0,6.336-3.1,11.766-7.513,14.067l.415,2.214c3.492,4.063,17.358,4.328,17.358,20.384ZM74.4,71.972h0c-3.134-4.089-7.477-6.131-10.61-7.6-.617-.289-1.3-.61-1.911-.924a20.3,20.3,0,0,0,6.251-15.032c0-8.719-5-16.052-11.766-18.2,1.683-5.91,6.2-10.15,11.515-10.15,6.754,0,12.23,6.826,12.23,15.244,0,6.336-3.1,11.765-7.513,14.067l.415,2.214c3.492,4.063,17.358,4.327,17.358,20.385H74.4Z" transform="translate(-0.001 0)" fill="#fff"/>
      </g>
    </g>
    <g id="Grupo_56" data-name="Grupo 56" transform="translate(928.849 589.483)">
      <path id="Caminho_49" data-name="Caminho 49" d="M165.647,170.246h-25.29a4.6,4.6,0,0,1-4.6-4.6v-25.29a4.6,4.6,0,0,1,4.6-4.6h25.29a4.6,4.6,0,0,1,4.6,4.6v25.29A4.6,4.6,0,0,1,165.647,170.246Z" transform="translate(-116.289 -116.29)" fill="#5d66de"/>
      <path id="Caminho_50" data-name="Caminho 50" d="M186.247,187.4h-25.29a1.15,1.15,0,0,1-1.15-1.15v-25.29a1.15,1.15,0,0,1,1.15-1.15h25.29a1.15,1.15,0,0,1,1.15,1.15v25.29A1.15,1.15,0,0,1,186.247,187.4Z" transform="translate(-136.89 -136.891)" fill="#c1c6ff"/>
      <g id="Grupo_52" data-name="Grupo 52" transform="translate(3.375 25.216)">
        <ellipse id="Elipse_9" data-name="Elipse 9" cx="2.299" cy="2.299" rx="2.299" ry="2.299" fill="#010a85"/>
        <ellipse id="Elipse_10" data-name="Elipse 10" cx="2.299" cy="2.299" rx="2.299" ry="2.299" transform="translate(62.077 18.393)" fill="#010a85"/>
      </g>
      <g id="Grupo_53" data-name="Grupo 53" transform="translate(1.076 14.871)">
        <ellipse id="Elipse_11" data-name="Elipse 11" cx="2.299" cy="2.299" rx="2.299" ry="2.299" transform="translate(0 39.084)" fill="#010a85"/>
        <ellipse id="Elipse_12" data-name="Elipse 12" cx="2.299" cy="2.299" rx="2.299" ry="2.299" transform="translate(66.675)" fill="#010a85"/>
      </g>
      <g id="Grupo_54" data-name="Grupo 54" transform="translate(25.217 3.375)">
        <ellipse id="Elipse_13" data-name="Elipse 13" cx="2.299" cy="2.299" rx="2.299" ry="2.299" transform="translate(18.393)" fill="#010a85"/>
        <ellipse id="Elipse_14" data-name="Elipse 14" cx="2.299" cy="2.299" rx="2.299" ry="2.299" transform="translate(0 62.077)" fill="#010a85"/>
      </g>
      <g id="Grupo_55" data-name="Grupo 55" transform="translate(14.871 1.076)">
        <ellipse id="Elipse_15" data-name="Elipse 15" cx="2.299" cy="2.299" rx="2.299" ry="2.299" fill="#010a85"/>
        <ellipse id="Elipse_16" data-name="Elipse 16" cx="2.299" cy="2.299" rx="2.299" ry="2.299" transform="translate(39.084 66.675)" fill="#010a85"/>
      </g>
      <path id="Caminho_51" data-name="Caminho 51" d="M194.2,197.123a1.15,1.15,0,0,1,.858.384,4.04,4.04,0,0,0,3.022,1.325,3.723,3.723,0,0,0,3.846-3.206,1.151,1.151,0,0,1,.567-.9,3.981,3.981,0,0,0,2.053-3.366,3.755,3.755,0,0,0-1.133-2.64,1.15,1.15,0,0,1,0-1.618,3.755,3.755,0,0,0,1.133-2.64,4.089,4.089,0,0,0-3.154-3.808,1.15,1.15,0,0,1-.8-1.363,2.561,2.561,0,0,0,.076-.577,3.073,3.073,0,0,0-3.233-2.874,3.421,3.421,0,0,0-2.418.972,1.184,1.184,0,0,1-1.63,0,3.42,3.42,0,0,0-2.418-.972,3.073,3.073,0,0,0-3.233,2.874,2.67,2.67,0,0,0,.062.566,1.149,1.149,0,0,1-.8,1.352,4.094,4.094,0,0,0-3.137,3.829,3.651,3.651,0,0,0,.87,2.335,1.15,1.15,0,0,1,.028,1.425,4.238,4.238,0,0,0-.9,2.562,4.474,4.474,0,0,0,2.079,3.678,1.151,1.151,0,0,1,.512.947,3.7,3.7,0,0,0,3.875,3.422,4.04,4.04,0,0,0,3.022-1.325A1.148,1.148,0,0,1,194.2,197.123Z" transform="translate(-157.49 -150.624)" fill="#010a85"/>
      <path id="Caminho_52" data-name="Caminho 52" d="M154.758,35.637H137.44V33.19h4.672a1.076,1.076,0,0,0,0-2.151H137.44V28.592h3.244a4.494,4.494,0,0,0,3.2-1.325l7.074-7.074a3.373,3.373,0,1,0-1.521-1.521l-7.074,7.074a2.358,2.358,0,0,1-1.678.7H137.44V24.068a5.68,5.68,0,0,0-5.674-5.674h-2.373V8.873a3.375,3.375,0,1,0-2.151,0v9.521H124.8V13.722a1.076,1.076,0,0,0-2.151,0v4.672H120.2V1.077a1.076,1.076,0,0,0-2.151,0V18.394H115.6V13.722a1.076,1.076,0,1,0-2.151,0v4.672H111V15.15a4.494,4.494,0,0,0-1.325-3.2L102.6,4.875A3.376,3.376,0,1,0,101.078,6.4l7.076,7.076a2.357,2.357,0,0,1,.7,1.678v3.244h-2.373a5.7,5.7,0,0,0-1.418.179,1.076,1.076,0,1,0,.536,2.083,3.542,3.542,0,0,1,.882-.111h25.29a3.527,3.527,0,0,1,3.523,3.523v25.29a3.544,3.544,0,0,1-.111.881,1.075,1.075,0,1,0,2.083.535,5.693,5.693,0,0,0,.179-1.417V46.985h9.521a3.375,3.375,0,1,0,0-2.151H137.44V42.387h4.672a1.076,1.076,0,0,0,0-2.151H137.44V37.789h17.318a1.076,1.076,0,0,0,0-2.151Zm-3.164-19.332a1.224,1.224,0,1,1,0,1.73h0a1.223,1.223,0,0,1,0-1.73ZM128.318,4.451a1.224,1.224,0,1,1-1.224,1.224A1.225,1.225,0,0,1,128.318,4.451Zm-29.6-.21a1.224,1.224,0,1,1,1.73,0h0A1.225,1.225,0,0,1,98.713,4.241ZM150.16,44.686a1.224,1.224,0,1,1-1.224,1.224A1.225,1.225,0,0,1,150.16,44.686Z" transform="translate(-82.409 -0.001)" fill="#fff"/>
      <path id="Caminho_53" data-name="Caminho 53" d="M54.755,197.494l-7.076-7.076a2.357,2.357,0,0,1-.7-1.678V185.5h2.373a5.694,5.694,0,0,0,1.418-.179,1.076,1.076,0,0,0-.536-2.083,3.54,3.54,0,0,1-.882.111H24.067a3.527,3.527,0,0,1-3.523-3.523v-25.29a3.538,3.538,0,0,1,.111-.881,1.076,1.076,0,1,0-2.083-.536,5.686,5.686,0,0,0-.179,1.418V156.9H8.872a3.375,3.375,0,1,0,0,2.151h9.521V161.5H13.721a1.076,1.076,0,0,0,0,2.151h4.672V166.1H1.076a1.076,1.076,0,0,0,0,2.151H18.393V170.7H13.721a1.076,1.076,0,1,0,0,2.151h4.672V175.3H15.149a4.494,4.494,0,0,0-3.2,1.325L4.876,183.7A3.372,3.372,0,1,0,6.4,185.217l7.074-7.074a2.358,2.358,0,0,1,1.678-.7h3.244v2.373a5.68,5.68,0,0,0,5.674,5.674H26.44v9.521a3.375,3.375,0,1,0,2.151,0V185.5h2.447v4.672a1.076,1.076,0,1,0,2.151,0V185.5h2.447v17.318a1.076,1.076,0,1,0,2.151,0V185.5h2.447v4.672a1.076,1.076,0,1,0,2.151,0V185.5h2.447v3.244a4.494,4.494,0,0,0,1.325,3.2l7.076,7.076a3.375,3.375,0,1,0,1.521-1.521ZM5.674,159.2A1.224,1.224,0,1,1,6.9,157.98,1.225,1.225,0,0,1,5.674,159.2ZM4.24,187.584a1.224,1.224,0,1,1,0-1.73h0a1.224,1.224,0,0,1,0,1.73Zm23.276,11.854a1.224,1.224,0,1,1,1.224-1.224A1.225,1.225,0,0,1,27.515,199.439Zm29.6,1.941a1.223,1.223,0,1,1,0-1.73A1.225,1.225,0,0,1,57.12,201.379Z" transform="translate(0 -130.465)" fill="#fff"/>
      <path id="Caminho_54" data-name="Caminho 54" d="M178.943,188.956v0a4.76,4.76,0,0,0,4.955,4.524,5.132,5.132,0,0,0,3.88-1.715,5.132,5.132,0,0,0,3.88,1.715,4.793,4.793,0,0,0,4.945-4.245,5.027,5.027,0,0,0,2.6-4.3,4.848,4.848,0,0,0-1.5-3.449,4.849,4.849,0,0,0,1.5-3.449,5.2,5.2,0,0,0-3.986-4.882,3.672,3.672,0,0,0,.106-.866,4.146,4.146,0,0,0-4.309-3.95,4.474,4.474,0,0,0-3.233,1.343,4.474,4.474,0,0,0-3.233-1.343,4.146,4.146,0,0,0-4.309,3.95,3.672,3.672,0,0,0,.106.866,5.2,5.2,0,0,0-3.986,4.882,4.724,4.724,0,0,0,1.133,3.061,5.319,5.319,0,0,0-1.133,3.262A5.539,5.539,0,0,0,178.943,188.956Zm2.989-13.866.029,0a1.075,1.075,0,0,0,.913-1.642c-.008-.013-.016-.027-.024-.039l-.014-.019c-.017-.023-.034-.046-.052-.068l0,0a1.6,1.6,0,0,1-.394-1.032,2.193,2.193,0,0,1,4.315,0,1.076,1.076,0,1,0,2.151,0,2.193,2.193,0,0,1,4.315,0,1.513,1.513,0,0,1-.161.677,5.973,5.973,0,0,0-1.765.443,1.076,1.076,0,0,0,.836,1.982,3.884,3.884,0,0,1,1.487-.3h.031l.029,0a3.228,3.228,0,0,1,3.424,2.947,2.87,2.87,0,0,1-1.655,2.5,1.075,1.075,0,0,0,0,1.9,2.869,2.869,0,0,1,1.655,2.5,2.751,2.751,0,0,1-.947,2.022,4.828,4.828,0,0,0-2.828-2.277,1.076,1.076,0,0,0-.645,2.052,2.44,2.44,0,0,1,1.833,2.226,2.843,2.843,0,0,1-5.608,0v-6.9a2.619,2.619,0,0,1,2.8-2.373,1.076,1.076,0,1,0,0-2.151,5.258,5.258,0,0,0-2.8.8V176.96a1.076,1.076,0,1,0-2.151,0v5.971a5.123,5.123,0,0,0-1.188-.55,1.076,1.076,0,0,0-.645,2.052,2.44,2.44,0,0,1,1.833,2.226v2.3a2.843,2.843,0,0,1-5.608,0,2.168,2.168,0,0,1,.669-1.535,1.076,1.076,0,1,0-1.516-1.526,4.573,4.573,0,0,0-.664.834,3.281,3.281,0,0,1-1.076-2.371,3.663,3.663,0,0,1,3.041-3.4,1.076,1.076,0,0,0-.481-2.1,6.553,6.553,0,0,0-1.973.8,2.6,2.6,0,0,1-.587-1.625A3.229,3.229,0,0,1,181.932,175.09Z" transform="translate(-151.066 -144.199)" fill="#fff"/>
    </g>
    <g id="Grupo_57" data-name="Grupo 57" transform="translate(708.177 375.255)">
      <rect id="Retângulo_60" data-name="Retângulo 60" width="13.572" height="19.001" transform="translate(4.072 54.287)" fill="#fff"/>
      <rect id="Retângulo_61" data-name="Retângulo 61" width="13.572" height="31.215" transform="translate(24.429 42.073)" fill="#fff"/>
      <rect id="Retângulo_62" data-name="Retângulo 62" width="13.572" height="42.073" transform="translate(44.787 31.215)" fill="#fff"/>
      <rect id="Retângulo_63" data-name="Retângulo 63" width="13.572" height="52.93" transform="translate(65.145 20.358)" fill="#fff"/>
      <path id="Caminho_55" data-name="Caminho 55" d="M80.074,58.214H1.357a1.357,1.357,0,0,1,0-2.714H80.074a1.357,1.357,0,0,1,0,2.714Z" transform="translate(0 16.431)" fill="#fff"/>
      <path id="Caminho_56" data-name="Caminho 56" d="M8.388,36.581a1.357,1.357,0,0,1-.68-2.532L60.6,3.512a1.357,1.357,0,1,1,1.357,2.351L9.065,36.4A1.35,1.35,0,0,1,8.388,36.581Z" transform="translate(2.511 -2.203)" fill="#fff"/>
      <path id="Caminho_57" data-name="Caminho 57" d="M50.417,6.341c-.043,0-.087,0-.133-.007L38.663,5.208a1.357,1.357,0,0,1,.263-2.7l11.62,1.126a1.357,1.357,0,0,1-.13,2.708Z" transform="translate(13.372 -2.5)" fill="#fff"/>
      <path id="Caminho_58" data-name="Caminho 58" d="M43.794,16.671a1.337,1.337,0,0,1-.562-.122,1.356,1.356,0,0,1-.673-1.8L47.393,4.126a1.357,1.357,0,1,1,2.47,1.124L45.029,15.876A1.354,1.354,0,0,1,43.794,16.671Z" transform="translate(15.158 -2.204)" fill="#fff"/>
    </g>
    <g id="book" transform="translate(969.96 846.845)">
      <path id="Caminho_59" data-name="Caminho 59" d="M85.052,36.619a6.847,6.847,0,0,0-3.062-2.23,8.357,8.357,0,0,1-.258,2.958l-15.563,51.2A3.73,3.73,0,0,1,64.353,90.7a5.755,5.755,0,0,1-2.905.8H13.566q-6.225,0-7.47-3.631a2.365,2.365,0,0,1,.052-2.23,2.285,2.285,0,0,1,1.971-.779H53.2q4.825,0,6.666-1.79t3.709-7.963l14.214-47a7.4,7.4,0,0,0-.934-6.744,6.834,6.834,0,0,0-5.914-2.9H31.464a14.423,14.423,0,0,0-2.646.467l.052-.156a10.827,10.827,0,0,0-2.464-.285,3.467,3.467,0,0,0-1.867.6A6.007,6.007,0,0,0,23.163,20.3a8.931,8.931,0,0,0-1.012,1.66q-.492,1.013-.83,1.868t-.778,1.817a11.69,11.69,0,0,1-.856,1.582q-.312.415-.882,1.089t-.933,1.193a2.922,2.922,0,0,0-.467.934,3.379,3.379,0,0,0,.1,1.375,4.276,4.276,0,0,1,.155,1.322,19.67,19.67,0,0,1-1.426,5.006,21.385,21.385,0,0,1-2.2,4.384q-.207.259-1.141,1.167a4.151,4.151,0,0,0-1.141,1.582q-.208.259-.026,1.453a7.491,7.491,0,0,1,.13,1.66,21.253,21.253,0,0,1-1.3,4.669,31.737,31.737,0,0,1-2.179,4.772A8.506,8.506,0,0,1,7.5,59.031a4.363,4.363,0,0,0-.882,1.452,4.573,4.573,0,0,0,.026,1.453,4.058,4.058,0,0,1-.026,1.556,28.157,28.157,0,0,1-1.556,4.747,34.636,34.636,0,0,1-2.335,4.746A12.486,12.486,0,0,1,1.869,74.2a12.659,12.659,0,0,0-.856,1.219A3.229,3.229,0,0,0,.6,76.512a2.578,2.578,0,0,0,.156,1.012A2.877,2.877,0,0,1,.909,78.64Q.857,79.366.7,80.56t-.156,1.4a9.412,9.412,0,0,0,.1,6.59,14.577,14.577,0,0,0,5.161,6.821,12.7,12.7,0,0,0,7.7,2.775H61.4a10.355,10.355,0,0,0,6.354-2.256,10.706,10.706,0,0,0,3.968-5.578l14.266-47A7.336,7.336,0,0,0,85.052,36.619Zm-55.2.1,1.09-3.32a2.314,2.314,0,0,1,.856-1.167,2.174,2.174,0,0,1,1.323-.493H64.666a1.131,1.131,0,0,1,1.037.493,1.353,1.353,0,0,1,.1,1.167l-1.091,3.32a2.317,2.317,0,0,1-.856,1.167,2.172,2.172,0,0,1-1.322.492H31a1.132,1.132,0,0,1-1.038-.492A1.353,1.353,0,0,1,29.855,36.723ZM25.55,50l1.089-3.32a2.316,2.316,0,0,1,.856-1.167,2.169,2.169,0,0,1,1.323-.493H60.359a1.13,1.13,0,0,1,1.038.493,1.351,1.351,0,0,1,.1,1.167L60.411,50a2.313,2.313,0,0,1-.855,1.167,2.17,2.17,0,0,1-1.323.493H26.691a1.13,1.13,0,0,1-1.037-.493A1.35,1.35,0,0,1,25.55,50Z" transform="translate(0 -18.463)" fill="#fff"/>
    </g>
  </g>
</svg>
