<svg xmlns="http://www.w3.org/2000/svg" width="1237" height="742" viewBox="0 0 1237 742">
  <g id="Grupo_64" data-name="Grupo 64" transform="translate(-342 -232)">
    <g id="Grupo_58" data-name="Grupo 58">
      <g id="Grupo_46" data-name="Grupo 46">
        <rect id="Retângulo_57" data-name="Retângulo 57" width="1237" height="742" transform="translate(342 232)" fill="#fff"/>
        <path id="Interseção_2" data-name="Interseção 2" d="M1140.672-751.5,1111.9-765.46a5.359,5.359,0,0,1-4.645,2.687h-.029a5.334,5.334,0,0,1-1.407-.194l-4.072,11.467h-.8l4.162-11.719a5.4,5.4,0,0,1-2.438-2.132L1075.77-751.5h-1.643l28.2-14.519a5.339,5.339,0,0,1-.436-2.14,5.343,5.343,0,0,1,.355-1.891L984.964-824.706a5.929,5.929,0,0,1-5.2,3.088h-.031a6.011,6.011,0,0,1-.652-.039l-3.172,17.574-9.49,52.583h-.763l12.687-70.29a5.955,5.955,0,0,1-3.922-3.19l-24.16,9.757-94.68,38.239a6.15,6.15,0,0,1,.319,1.99,6.139,6.139,0,0,1-1.154,3.562L879.31-751.5h-1.191l-23.846-19.35a6.165,6.165,0,0,1-4.549,2h-.031a6.136,6.136,0,0,1-1.833-.287L841.071-751.5h-.8l6.892-17.9a6.224,6.224,0,0,1-2.264-1.769l-28,19.674h-1.306l28.876-20.288a6.14,6.14,0,0,1-.743-1.775L725-752.162c.007.1.012.2.011.3q0,.182-.02.36h-5.843a2.211,2.211,0,0,1-.032-.39,2.2,2.2,0,0,1,2.208-2.184,2.2,2.2,0,0,1,1.623.728,2.192,2.192,0,0,0-1.623-.729h-.012a2.2,2.2,0,0,0-2.2,2.184,2.2,2.2,0,0,0,.033.391h-1.513a3.712,3.712,0,0,1-.019-.4,3.7,3.7,0,0,1,3.716-3.679,3.7,3.7,0,0,1,2.965,1.516l98.884-57.905a5.018,5.018,0,0,1-.516-2.249,5.059,5.059,0,0,1,5.078-5.027,5.065,5.065,0,0,1,4.846,3.7l56.651-11.257a4.208,4.208,0,0,1-.023-.467,4.2,4.2,0,0,1,4.215-4.173,4.2,4.2,0,0,1,3.762,2.384l99.319-37.022a4.324,4.324,0,0,1-.157-1.18,4.339,4.339,0,0,1,4.355-4.311,4.317,4.317,0,0,1,2.638.914l59.9-64.658a3.93,3.93,0,0,1-1-2.642,3.945,3.945,0,0,1,2.443-3.624l-28.382-93.718a3.668,3.668,0,0,1-.693.066h-.018a3.648,3.648,0,0,1-3.626-3.663,3.65,3.65,0,0,1,3.663-3.628,3.67,3.67,0,0,1,.529.042l18.5-71.254a4.9,4.9,0,0,1-3.3-4.649,4.9,4.9,0,0,1,4.915-4.865,4.887,4.887,0,0,1,3.817,1.869l76.854-51.4a6.88,6.88,0,0,1-.969-3.564,6.928,6.928,0,0,1,6.953-6.883,6.916,6.916,0,0,1,1.952.291l42.708-118.6a.372.372,0,0,1,.326-.248l34.585-6.852v.765l-34.1,6.755,34.1,141.6v3.21l-14.986-62.227L1187.87-1300.1l-42.282,117.423a6.929,6.929,0,0,1,4.226,6.407,6.88,6.88,0,0,1-.635,2.857l73.32,38.687v.849l-73.672-38.872a6.928,6.928,0,0,1-5.553,3.353l.028,36.656.028,36.485a4.027,4.027,0,0,1,3.125,2.02l53.434-23.974,22.611-10.146v.825l-48.8,21.895-26.933,12.085a4.011,4.011,0,0,1,.214,1.316,4,4,0,0,1-.635,2.144l76.156,59.454v.952l-48.622-37.958-28-21.856a4.024,4.024,0,0,1-2.036,1.163l13.2,102.182,3.98,30.8c.148-.01.3-.015.447-.015h.031a6.373,6.373,0,0,1,4.649,2.047l56.346-46.441v.973l-11.126,9.169-44.743,36.878a6.355,6.355,0,0,1,1.229,3.8,6.365,6.365,0,0,1-.329,2l54.969,22.07v.809l-55.25-22.182a6.4,6.4,0,0,1-5.777,3.664h-.033a6.356,6.356,0,0,1-1.99-.327l-17.422,43.516a5.933,5.933,0,0,1,3.378,5.262l40.891,1.977,36.2,1.751v.751l-4.141-.2-72.99-3.529a5.879,5.879,0,0,1-.811,2.391l5.366,3.706,72.576,50.13v.913l-78.369-54.131a5.919,5.919,0,0,1-4.649,2.254h-.031a6,6,0,0,1-1.071-.1l-2.489,9.722L1108.948-773.22a5.384,5.384,0,0,1,3.5,3.739L1222.5-790v.763l-109.917,20.495a5.551,5.551,0,0,1,.034.637,5.336,5.336,0,0,1-.384,1.971l1.931.937,28.228,13.7Zm-415.994-1.913a3.672,3.672,0,0,1,.19.513l118.72-21.4a6.214,6.214,0,0,1-.043-.758,6.179,6.179,0,0,1,2.832-5.158L829.86-809.61a5.034,5.034,0,0,1-2.142.476h-.026a5.052,5.052,0,0,1-4.131-2.184Zm382.876-10.87c-.1.007-.2.011-.3.011h-.021Q1107.4-764.271,1107.554-764.283Zm-4.155-3.868a3.844,3.844,0,0,0,.271,1.444,3.863,3.863,0,0,1-.27-1.444,3.879,3.879,0,0,1,.218-1.262h0A3.837,3.837,0,0,0,1103.4-768.151Zm.535-1.944h0a3.69,3.69,0,0,1,.255-.378h0A3.843,3.843,0,0,0,1103.935-770.095Zm6.314-.477Zm-.029-.035a3.872,3.872,0,0,0-1.645-1.154A3.872,3.872,0,0,1,1110.22-770.607ZM982.852-832.6a5.926,5.926,0,0,1,2.836,5.085,5.9,5.9,0,0,1-.406,2.127l97.086,45.241,20.2,9.415a5.362,5.362,0,0,1,.518-.767l-23.531-21.882-75.964-70.638a4.315,4.315,0,0,1-2.9,1.12h-.023a4.3,4.3,0,0,1-1.66-.339ZM1104.7-771.023h0a3.847,3.847,0,0,1,2.393-.966h0A3.844,3.844,0,0,0,1104.7-771.023Zm3.144-.923h0ZM1005.01-867.581q.015.185.013.373a4.319,4.319,0,0,1-.918,2.641l67.386,62.662,32.108,29.858a5.345,5.345,0,0,1,3.579-1.445l5.4-97.819.631-11.44a3.667,3.667,0,0,1-2.951-2.634Zm128.887-24.4-16.52,4.936a3.607,3.607,0,0,1,.064.7,3.663,3.663,0,0,1-3.485,3.636l-6.027,109.259c.1.013.194.027.291.045l22.19-86.7,7.242-28.3a5.955,5.955,0,0,1-3.731-3.583ZM845.047-775.049v0a4.669,4.669,0,0,1,2.066-3.857h0A4.671,4.671,0,0,0,845.047-775.049Zm8.86-2.068a4.707,4.707,0,0,0-.9-1.241h0A4.7,4.7,0,0,1,853.906-777.118Zm1.695-4.346-1.634,1.953a6.2,6.2,0,0,1,1.333,1.83l118.84-48a5.891,5.891,0,0,1-.288-1.471l-14.581.051-61.681.218a4.2,4.2,0,0,1-4.18,3.831h-.02a4.172,4.172,0,0,1-2.371-.75Zm-5.854,1.763a4.654,4.654,0,0,1,2.678.859h0a4.663,4.663,0,0,0-2.679-.859h-.025a4.662,4.662,0,0,0-1.956.427h0a4.663,4.663,0,0,1,1.957-.427Zm.008-1.5a6.145,6.145,0,0,1,3.635,1.209l37.053-44.285a4.194,4.194,0,0,1-1.058-1.779L832.735-814.8a5.156,5.156,0,0,1,.037.638,5.054,5.054,0,0,1-2.258,4.183l9.667,17.205,6.85,12.19a6.141,6.141,0,0,1,2.692-.618ZM824.48-812.725a3.542,3.542,0,0,1-.313-1.479A3.542,3.542,0,0,0,824.48-812.725Zm-.313-1.481h0a3.554,3.554,0,0,1,3.57-3.535,3.559,3.559,0,0,1,3.336,2.383,3.558,3.558,0,0,0-3.336-2.384h-.018A3.553,3.553,0,0,0,824.167-814.206Zm151.992-10.771a4.416,4.416,0,0,1-.344-.567A4.416,4.416,0,0,0,976.159-824.977Zm-.625-1.264h0a4.37,4.37,0,0,1-.178-.913h0A4.426,4.426,0,0,0,975.533-826.241Zm-84.814-1.013h0a2.694,2.694,0,0,1,2.707-2.68,2.692,2.692,0,0,1,2.344,1.392,2.692,2.692,0,0,0-2.344-1.393h-.015A2.692,2.692,0,0,0,890.719-827.254Zm91.432-4.015a4.42,4.42,0,0,1,2.038,3.711,4.422,4.422,0,0,0-2.037-3.712Zm-84.695,2.92a4.11,4.11,0,0,1,.13.717l71.018-.248,5.244-.018a5.931,5.931,0,0,1,5.944-5.572,5.888,5.888,0,0,1,2.4.52l16.155-30.639a4.354,4.354,0,0,1-1.569-1.782Zm77.9.445h0a4.426,4.426,0,0,1,4.432-4.065,4.432,4.432,0,0,1,1.7.349h0a4.432,4.432,0,0,0-1.7-.349h-.022A4.426,4.426,0,0,0,975.353-827.9Zm23.325-37.334a2.822,2.822,0,0,1-.488-.661A2.8,2.8,0,0,0,998.678-865.237Zm-.821-2.009a2.871,2.871,0,0,0,.07.644h0a2.863,2.863,0,0,1-.07-.643,2.833,2.833,0,0,1,2.848-2.819,2.816,2.816,0,0,1,1.619.518,2.811,2.811,0,0,0-1.62-.519h-.015A2.834,2.834,0,0,0,997.857-867.245Zm60.325-42.7-53.815,40.421a4.315,4.315,0,0,1,.518,1.2l105.247-17.806c-.005-.085-.008-.171-.008-.257a3.638,3.638,0,0,1,.526-1.868l-30.573-23.03-6.88-5.183a4.247,4.247,0,0,1-3.16,1.407h-.023a4.242,4.242,0,0,1-3.141-1.41Zm-54.9,41.559c-.035-.08-.074-.158-.116-.233C1003.2-868.541,1003.243-868.462,1003.278-868.383Zm.619-1.76.017.019,62.506-46.946a4.24,4.24,0,0,1-.643-2.268,4.267,4.267,0,0,1,3.032-4.055l-2.2-10.621a3.935,3.935,0,0,1-.427.023h-.022a3.918,3.918,0,0,1-2.367-.807Zm107.727-16.236a2.156,2.156,0,0,1,.235-.964h0A2.151,2.151,0,0,0,1111.624-886.379Zm2.17-2.145a2.163,2.163,0,0,1,1.9,1.163,2.162,2.162,0,0,0-1.9-1.164h-.012a2.151,2.151,0,0,0-1.472.581h0a2.151,2.151,0,0,1,1.471-.58Zm.007-1.5a3.664,3.664,0,0,1,3.361,2.257l16.544-4.943a5.884,5.884,0,0,1-.151-1.364,5.9,5.9,0,0,1,.239-1.639L1091.1-911.25l-17.21-6.262a4.151,4.151,0,0,1-.244.448l37.455,28.211a3.654,3.654,0,0,1,2.682-1.171Zm21.255-4.044h0a4.414,4.414,0,0,1,.152-1.131A4.407,4.407,0,0,0,1135.056-894.067Zm.409-1.837h0a4.425,4.425,0,0,1,4.037-2.564,4.435,4.435,0,0,1,1.268.192h0a4.433,4.433,0,0,0-1.268-.192h-.022A4.427,4.427,0,0,0,1135.464-895.9Zm-33.224-33.462-28.054,9.1a4.234,4.234,0,0,1,.107.973,4.277,4.277,0,0,1-.143,1.076l12.325,4.486,47.577,17.314a5.939,5.939,0,0,1,5.459-3.552,5.907,5.907,0,0,1,1.82.3l7.252-18.114,10.17-25.4a6.43,6.43,0,0,1-3.233-3.456Zm40.073,31.923a4.48,4.48,0,0,0-.844-.554h0A4.456,4.456,0,0,1,1142.312-897.443Zm-75.034-21.886a2.741,2.741,0,0,0,.225,1.105,2.75,2.75,0,0,1-.224-1.1,2.759,2.759,0,0,1,1.644-2.51A2.756,2.756,0,0,0,1067.279-919.329Zm5.155-1.346a2.756,2.756,0,0,0-2.349-1.4A2.756,2.756,0,0,1,1072.434-920.676Zm-2.378-2.9a4.266,4.266,0,0,1,3.9,2.591l81.333-26.38c-.042-.165-.079-.333-.109-.5l-64.96,7.528-20.1,2.329c0,.032,0,.066,0,.1a3.948,3.948,0,0,1-2.776,3.744l.508,2.452,1.691,8.169a4.369,4.369,0,0,1,.488-.028Zm.029,1.5h0Zm-5.946-14.529a2.429,2.429,0,0,1-.394-1.343A2.425,2.425,0,0,0,1064.138-936.6Zm-.337-1.855a2.439,2.439,0,0,1,1.325-1.673A2.437,2.437,0,0,0,1063.8-938.455Zm4.733-.126h0a2.444,2.444,0,0,0-1.227-1.513A2.446,2.446,0,0,1,1068.534-938.581Zm-2.331-3.289a3.948,3.948,0,0,1,3.832,3.116l85.056-9.856c-.007-.13-.011-.262-.01-.4a6.347,6.347,0,0,1,.982-3.367l-117.72-84.088a3.659,3.659,0,0,1-1.32.949l28.382,93.719a3.963,3.963,0,0,1,.778-.077Zm1.1,1.775,0,0Zm91.317-4.9a4.908,4.908,0,0,1-1.671-2.11A4.9,4.9,0,0,0,1158.621-945Zm-1.9-2.825c-.017-.07-.032-.141-.046-.212h0C1156.685-947.966,1156.7-947.9,1156.718-947.825Zm-.132-.958c0-.071,0-.142,0-.214C1156.582-948.926,1156.583-948.855,1156.586-948.784Zm.006-.495a4.863,4.863,0,0,1,.694-2.221A4.859,4.859,0,0,0,1156.591-949.279Zm9.225-1.939a5.014,5.014,0,0,0-.344-.567A5.014,5.014,0,0,1,1165.817-951.217Zm-8.095-.895h0a4.885,4.885,0,0,1,2.751-1.649h0A4.889,4.889,0,0,0,1157.722-952.112Zm3.775-1.75a4.869,4.869,0,0,1,3.5,1.5h0a4.875,4.875,0,0,0-3.5-1.5h-.026c-.085,0-.168,0-.251.006h0c.083,0,.167-.006.25-.006Zm-122.47-86.29a3.615,3.615,0,0,1,.232,1.3,3.626,3.626,0,0,1-.477,1.783L1156.5-952.984a6.4,6.4,0,0,1,3.781-2.268l-17.18-132.985-.145,0h-.02a4.019,4.019,0,0,1-3.392-1.9Zm-5.559,1.267a2.139,2.139,0,0,0,.483,1.368,2.143,2.143,0,0,1-.482-1.368,2.143,2.143,0,0,1,2.156-2.132c.052,0,.1,0,.155.006h0c-.052,0-.1-.005-.157-.006h-.012A2.145,2.145,0,0,0,1033.467-1038.884Zm3.04-1.937a2.151,2.151,0,0,1,.768.593,2.156,2.156,0,0,0-.768-.594Zm17.023-65.57-16.642,64.1a3.673,3.673,0,0,1,1.8,1.466l100.517-49.984a3.981,3.981,0,0,1-.269-1.465,4.068,4.068,0,0,1,.079-.775l-64.1-19.3-14.112-4.248a4.9,4.9,0,0,1-4.559,3.124h-.026a4.827,4.827,0,0,1-.836-.076Zm89.378,16.658a2.52,2.52,0,0,1-2.011-1.073A2.515,2.515,0,0,0,1142.908-1089.734Zm-2.465-2.53h0a2.586,2.586,0,0,1,.025-.347A2.583,2.583,0,0,0,1140.443-1092.263Zm.241-1.066h0a2.524,2.524,0,0,1,1.9-1.41h0A2.522,2.522,0,0,0,1140.684-1093.329Zm-25.258-64.152-54.918,36.729a4.851,4.851,0,0,1,.629,2.422,4.9,4.9,0,0,1-.113,1.021l78.212,23.544a4.029,4.029,0,0,1,3.344-2.486l-.057-73.142a6.914,6.914,0,0,1-5.161-2.758Zm27.9,62.741a2.5,2.5,0,0,1,1.1.445,2.5,2.5,0,0,0-1.1-.445Zm-90.472-23.633a3.382,3.382,0,0,0,.637,2,3.379,3.379,0,0,1-.636-1.994,3.389,3.389,0,0,1,3.407-3.37,3.384,3.384,0,0,1,2.573,1.2,3.383,3.383,0,0,0-2.574-1.205h-.018A3.39,3.39,0,0,0,1052.859-1118.373Zm6.78.035a3.364,3.364,0,0,0-.38-1.578h0A3.373,3.373,0,0,1,1059.638-1118.338Zm80.257-53.449a5.458,5.458,0,0,1-1.286-1.2h0A5.464,5.464,0,0,0,1139.9-1171.787Zm-2.421-4.542a5.4,5.4,0,0,0,.716,2.722h0a5.4,5.4,0,0,1-.716-2.721,5.421,5.421,0,0,1,5.448-5.392,5.418,5.418,0,0,1,1.449.2,5.39,5.39,0,0,0-1.45-.205h-.027A5.421,5.421,0,0,0,1137.475-1176.33Zm10.838.056a5.4,5.4,0,0,0-.268-1.714A5.4,5.4,0,0,1,1148.313-1176.274Zm-.276-1.739a.014.014,0,0,0,0-.005A.014.014,0,0,1,1148.036-1178.013Zm-2.2-2.839a5.435,5.435,0,0,0-.759-.41A5.435,5.435,0,0,1,1145.839-1180.851Z" transform="translate(356 1725)" fill="#4790f7"/>
        <path id="Interseção_1" data-name="Interseção 1" d="M288.2-686.608l126.308-64.928-84.2-148.577a4.24,4.24,0,0,1-.589.217l-.023.006a4.232,4.232,0,0,1-2.036.068l-7,23L288.2-770.233v-2.573l34.659-113.82,4.085-13.416a4.263,4.263,0,0,1-2.511-2.8,4.183,4.183,0,0,1-.13-.661l-36.1,1.011v-.752l36.082-1.011a4.262,4.262,0,0,1,.447-1.656L288.2-928.479v-.883l36.923,22.814a4.242,4.242,0,0,1,1.457-1.237l-38.38-93.682v-1.988l39.076,95.385.086-.025.023-.007a4.268,4.268,0,0,1,4.159,1.079L374.763-943.5l22.559-19.04a4.021,4.021,0,0,1-.569-1.206,4,4,0,0,1,.019-2.236l-106.517-42.988a6.5,6.5,0,0,1-2.051,2.475v-2.033a4.993,4.993,0,0,0,.658-1h0a5,5,0,0,1-.657,1v-9.394l18.363-26.713,16.139-23.478h.91l-35.242,51.27a6.447,6.447,0,0,1,2.263,3.358,6.434,6.434,0,0,1-.1,3.82l73.58,29.7,32.938,13.292a4.016,4.016,0,0,1,1.636-1.678l-40.856-94.586-2.234-5.172h.817l42.961,99.46.139-.042.019-.005a4.02,4.02,0,0,1,3.785.892l82.848-75.752a3.61,3.61,0,0,1-.581-1.184,3.619,3.619,0,0,1-.032-1.845l-60.649-21.523h2.246l58.656,20.815a3.659,3.659,0,0,1,1.007-1.276L474.2-1068.111h.894l12.352,19.131a3.69,3.69,0,0,1,.647-.255l.018,0a3.648,3.648,0,0,1,4.495,2.521,3.65,3.65,0,0,1-2.521,4.5,3.681,3.681,0,0,1-.519.106l1.856,73.593a4.9,4.9,0,0,1,4.455,3.559,4.9,4.9,0,0,1-3.384,6.032,4.882,4.882,0,0,1-4.183-.745L428.6-889.086a6.88,6.88,0,0,1,1.913,3.159,6.927,6.927,0,0,1-4.786,8.533,6.876,6.876,0,0,1-1.957.259l-8.362,125.78a.371.371,0,0,1-.245.328L288.2-685.762Zm42.763-213.876,42.409,74.835,41.365,72.992,8.278-124.529a6.932,6.932,0,0,1-5.828-4.995,6.887,6.887,0,0,1-.177-2.921l-84.387-17.657A4.292,4.292,0,0,1,330.967-900.483Zm96.663,12.544a5.393,5.393,0,0,1,1.438,2.417,5.42,5.42,0,0,1-3.75,6.684,5.424,5.424,0,0,1-1.449.2h0a5.425,5.425,0,0,0,1.45-.2l.026-.007a5.42,5.42,0,0,0,3.724-6.677,5.392,5.392,0,0,0-1.439-2.419Zm-4.511,9.256a5.441,5.441,0,0,1-.843-.185A5.441,5.441,0,0,0,423.119-878.684Zm-3.735-2.3,0,0Zm-.018-.026a5.407,5.407,0,0,1-.73-1.574A5.407,5.407,0,0,0,419.366-881.014Zm-66.314-43.176L332.035-906.45a4.242,4.242,0,0,1,.616,1.3,4.237,4.237,0,0,1,.13,1.658l84.388,17.656a6.926,6.926,0,0,1,4.413-4.754l-10.13-35.229-10.084-35.064a4.023,4.023,0,0,1-3.56-1.08Zm74,35.766h0a5.454,5.454,0,0,0-1.567-.8A5.447,5.447,0,0,1,427.056-888.423Zm.969-1.146,17.042-20.148,42.666-50.443a4.863,4.863,0,0,1-1.273-2.155,4.929,4.929,0,0,1-.173-1.013L404.618-964.4a4.031,4.031,0,0,1-2.529,3.312L422.3-890.8a6.9,6.9,0,0,1,1.546-.176A6.942,6.942,0,0,1,428.026-889.569Zm-98.731-11.765.011,0a2.729,2.729,0,0,0,.263-.09h0c-.085.034-.174.064-.264.09l-.011,0a2.761,2.761,0,0,1-1.19.068A2.751,2.751,0,0,0,329.295-901.334Zm-1.907-.15h0a2.761,2.761,0,0,1-1.5-1.762A2.758,2.758,0,0,0,327.388-901.484Zm2.835-.313h0a2.787,2.787,0,0,0,.927-1.271h0A2.778,2.778,0,0,1,330.223-901.8Zm1.088-2.208a2.715,2.715,0,0,0-.039-.451A2.715,2.715,0,0,1,331.31-904.005Zm160.775-56.371.017-.005a3.389,3.389,0,0,0,2.329-4.174,3.372,3.372,0,0,0-1.162-1.741,3.376,3.376,0,0,1,1.161,1.741,3.39,3.39,0,0,1-2.346,4.179,3.37,3.37,0,0,1-1.608.056A3.377,3.377,0,0,0,492.086-960.377Zm-2.758-.417-.048-.031Zm-.621-.516a3.368,3.368,0,0,1-.8-1.412A3.368,3.368,0,0,0,488.706-961.309Zm-87.756-1.026a2.51,2.51,0,0,1-1.175-.126A2.5,2.5,0,0,0,400.95-962.335Zm.721-.208h0a2.519,2.519,0,0,0,1.435-1.88A2.524,2.524,0,0,1,401.671-962.543Zm2.158-4.711a3.992,3.992,0,0,1,.661,1.334,4.026,4.026,0,0,1,.138.767l66.935.881,14.737.193a4.9,4.9,0,0,1,3.521-4.26l.025-.007a4.929,4.929,0,0,1,.824-.157l-.185-7.385-1.672-66.208a3.67,3.67,0,0,1-2.137-.912Zm-.714,2.081Zm-.024-.142q-.02-.1-.047-.2h0C403.062-965.448,403.078-965.381,403.091-965.315Zm-.886-1.473a2.517,2.517,0,0,0-1.906-.54,2.51,2.51,0,0,1,.321-.021A2.528,2.528,0,0,1,402.206-966.788Zm-1.945-.535.024,0Zm-111.117-42.9h0a4.943,4.943,0,0,0,.168-2.312A4.948,4.948,0,0,1,289.143-1010.225Zm199.632-33.385h0a2.148,2.148,0,0,1-.9-.358A2.152,2.152,0,0,0,488.775-1043.609Zm2.387-2.7a2.144,2.144,0,0,1-1.484,2.644c-.05.014-.1.026-.151.036h0c.051-.01.1-.022.152-.037l.012,0a2.145,2.145,0,0,0,1.472-2.641,2.139,2.139,0,0,0-.841-1.182A2.137,2.137,0,0,1,491.161-1046.31Z" transform="translate(54.296 1300.611)" fill="#4790f7"/>
      </g>
    </g>
    <g id="wifi" transform="translate(826.836 682.011) rotate(90)">
      <path id="Caminho_60" data-name="Caminho 60" d="M31.2,5.3A3.1,3.1,0,0,0,26.816.909a90.05,90.05,0,0,0,0,127.206A3.1,3.1,0,1,0,31.2,123.73,83.843,83.843,0,0,1,31.2,5.3Z" transform="translate(0 0)" fill="#4790f7"/>
      <path id="Caminho_61" data-name="Caminho 61" d="M53.593.909A3.1,3.1,0,0,0,49.207,5.3,83.166,83.166,0,0,1,73.7,64.512,83.166,83.166,0,0,1,49.207,123.73a3.1,3.1,0,1,0,4.386,4.386A89.324,89.324,0,0,0,79.9,64.512,89.324,89.324,0,0,0,53.593.909Z" transform="translate(100.429 0)" fill="#4790f7"/>
      <path id="Caminho_62" data-name="Caminho 62" d="M31.759,9.537a3.1,3.1,0,0,0-4.386-4.386,71.418,71.418,0,0,0,0,100.888,3.1,3.1,0,1,0,4.386-4.386A65.21,65.21,0,0,1,31.759,9.537Z" transform="translate(12.606 8.915)" fill="#4790f7"/>
      <path id="Caminho_63" data-name="Caminho 63" d="M49.351,5.151a3.1,3.1,0,0,0-4.386,4.386,65.21,65.21,0,0,1,0,92.117,3.1,3.1,0,1,0,4.386,4.386A71.418,71.418,0,0,0,49.351,5.151Z" transform="translate(91.514 8.915)" fill="#4790f7"/>
      <path id="Caminho_64" data-name="Caminho 64" d="M32.314,9.394a3.1,3.1,0,0,0-4.386,0,52.784,52.784,0,0,0,0,74.571,3.1,3.1,0,0,0,4.386-4.386,46.574,46.574,0,0,1,0-65.8A3.108,3.108,0,0,0,32.314,9.394Z" transform="translate(25.208 17.833)" fill="#4790f7"/>
      <path id="Caminho_65" data-name="Caminho 65" d="M45.109,9.394a3.1,3.1,0,1,0-4.386,4.386,46.574,46.574,0,0,1,0,65.8,3.1,3.1,0,1,0,4.386,4.386,52.78,52.78,0,0,0,0-74.568Z" transform="translate(82.598 17.833)" fill="#4790f7"/>
      <path id="Caminho_66" data-name="Caminho 66" d="M44.211,14a21.7,21.7,0,0,0-3.1,43.175v93.3a3.1,3.1,0,0,0,6.2,0v-93.3A21.7,21.7,0,0,0,44.211,14Z" transform="translate(46.208 29.424)" fill="#4790f7"/>
    </g>
    <g id="settings-gears" transform="translate(430.628 648.285)">
      <path id="Caminho_80" data-name="Caminho 80" d="M14.766,85.994a54.755,54.755,0,0,0,4.9,11.629l-5.911,7.455a6.119,6.119,0,0,0,.458,8.106l10.181,10.181a6.092,6.092,0,0,0,8.106.458l7.407-5.863a53.813,53.813,0,0,0,12.087,5.115l1.11,9.53a6.1,6.1,0,0,0,6.056,5.4h14.4a6.1,6.1,0,0,0,6.056-5.4l1.062-9.192a54.433,54.433,0,0,0,12.956-5.235l7.165,5.67a6.119,6.119,0,0,0,8.106-.458l10.181-10.181a6.092,6.092,0,0,0,.458-8.106l-5.573-7.069a53.17,53.17,0,0,0,5.332-12.739l8.589-.989a6.1,6.1,0,0,0,5.4-6.056v-14.4a6.1,6.1,0,0,0-5.4-6.056l-8.468-.989a53.513,53.513,0,0,0-5.115-12.594l5.211-6.586a6.119,6.119,0,0,0-.458-8.106L108.907,19.358A6.092,6.092,0,0,0,100.8,18.9l-6.393,5.067a53.7,53.7,0,0,0-13.245-5.549L80.2,10.141a6.1,6.1,0,0,0-6.056-5.4h-14.4a6.1,6.1,0,0,0-6.056,5.4l-.965,8.275a53.47,53.47,0,0,0-13.583,5.742L32.5,18.9a6.119,6.119,0,0,0-8.106.458L14.211,29.539a6.092,6.092,0,0,0-.458,8.106L19.3,44.666A52.484,52.484,0,0,0,14.284,57.38L5.405,58.394A6.1,6.1,0,0,0,0,64.449v14.4a6.1,6.1,0,0,0,5.4,6.056ZM66.951,47.031A23.813,23.813,0,1,1,43.138,70.843,23.847,23.847,0,0,1,66.951,47.031Z" fill="#4790f7"/>
      <path id="Caminho_81" data-name="Caminho 81" d="M571.96,304.28l-7.6-6.418a6.011,6.011,0,0,0-8.01.217l-4.2,3.933a43.391,43.391,0,0,0-11.195-3.619l-1.182-5.79a6.067,6.067,0,0,0-6.418-4.825l-9.916.844a6.041,6.041,0,0,0-5.525,5.814l-.193,5.887a43.513,43.513,0,0,0-10.688,5.621l-5.018-3.329a6.028,6.028,0,0,0-7.938,1.134l-6.418,7.648a6.012,6.012,0,0,0,.217,8.01l4.391,4.68a44.969,44.969,0,0,0-3.233,10.712l-6.273,1.279a6.067,6.067,0,0,0-4.825,6.418l.844,9.916a6.041,6.041,0,0,0,5.814,5.525l6.779.217a44.306,44.306,0,0,0,4.8,9.168l-3.788,5.718a6.028,6.028,0,0,0,1.134,7.938l7.6,6.418a6.012,6.012,0,0,0,8.01-.217l4.97-4.656a43.564,43.564,0,0,0,10.205,3.329l1.375,6.8a6.067,6.067,0,0,0,6.418,4.825l9.916-.844a6.041,6.041,0,0,0,5.525-5.814l.217-6.659A44.594,44.594,0,0,0,557.967,379l5.477,3.619a6.028,6.028,0,0,0,7.938-1.134l6.418-7.6a6.012,6.012,0,0,0-.217-8.01l-4.415-4.68a43.451,43.451,0,0,0,3.474-10.761l6.032-1.23a6.067,6.067,0,0,0,4.825-6.418l-.844-9.916a6.041,6.041,0,0,0-5.814-5.525l-6.056-.193a43.814,43.814,0,0,0-5.042-9.94l3.305-4.97A6,6,0,0,0,571.96,304.28ZM534.589,361.6a19.491,19.491,0,1,1,17.781-21.062A19.494,19.494,0,0,1,534.589,361.6Z" transform="translate(-362.616 -214.739)" fill="#4790f7"/>
      <path id="Caminho_82" data-name="Caminho 82" d="M187.774,593.887a6.027,6.027,0,0,0-5.4,5.935l-.072,6.1a6.013,6.013,0,0,0,5.26,6.056l4.487.579a34.812,34.812,0,0,0,3.185,7.793l-2.9,3.571a6.015,6.015,0,0,0,.362,8.01l4.27,4.367a6.024,6.024,0,0,0,8.01.555l3.595-2.775a35.238,35.238,0,0,0,8.01,3.5l.483,4.632a6.027,6.027,0,0,0,5.935,5.4l6.1.072a6.013,6.013,0,0,0,6.056-5.26l.555-4.391a36.248,36.248,0,0,0,8.685-3.378l3.378,2.726a6.016,6.016,0,0,0,8.01-.362l4.367-4.27a6.024,6.024,0,0,0,.555-8.01l-2.582-3.354a34.99,34.99,0,0,0,3.667-8.444l4-.41a6.027,6.027,0,0,0,5.4-5.935l.072-6.1a6.012,6.012,0,0,0-5.259-6.056l-3.909-.507a36.348,36.348,0,0,0-3.305-8.444l2.437-2.992a6.015,6.015,0,0,0-.362-8.01l-4.27-4.367a6.023,6.023,0,0,0-8.01-.555l-2.92,2.244A35.488,35.488,0,0,0,236.9,568l-.386-3.788a6.027,6.027,0,0,0-5.935-5.4l-6.1-.072a6.013,6.013,0,0,0-6.056,5.26l-.483,3.764a36.442,36.442,0,0,0-9.1,3.715l-3.016-2.461a6.016,6.016,0,0,0-8.01.362l-4.391,4.295a6.023,6.023,0,0,0-.555,8.01l2.582,3.33a35.311,35.311,0,0,0-3.45,8.444Zm39.4-6.9A15.876,15.876,0,1,1,211.1,602.669,15.889,15.889,0,0,1,227.172,586.986Z" transform="translate(-138.315 -420.338)" fill="#4790f7"/>
    </g>
    <g id="database" transform="translate(958.5 392)">
      <g id="Grupo_62" data-name="Grupo 62" transform="translate(1.5)">
        <path id="Caminho_69" data-name="Caminho 69" d="M360.306,59.857h0C354.837,26.472,276.7,0,181.071,0S7.306,26.472,1.837,59.857H1.5V336.7h.337c5.469,33.378,83.613,59.857,179.235,59.857S354.837,370.074,360.306,336.7h.337V59.857Z" transform="translate(-1.5)" fill="#545e73"/>
        <g id="Grupo_59" data-name="Grupo 59" transform="translate(0 239.429)">
          <path id="Caminho_70" data-name="Caminho 70" d="M181.071,96.1C81.9,96.1,1.5,67.621,1.5,32.5v93.527h.337C7.306,159.4,85.45,185.884,181.071,185.884S354.837,159.4,360.306,126.027h.337V32.5C360.643,67.621,280.247,96.1,181.071,96.1Z" transform="translate(-1.5 -28.759)" fill="#010a85"/>
          <path id="Caminho_71" data-name="Caminho 71" d="M1.5,32v3.741A23.257,23.257,0,0,1,1.837,32Z" transform="translate(-1.5 -32)" fill="#010a85"/>
          <path id="Caminho_72" data-name="Caminho 72" d="M49.455,32a23.256,23.256,0,0,1,.337,3.741V32Z" transform="translate(309.351 -32)" fill="#010a85"/>
        </g>
        <g id="Grupo_60" data-name="Grupo 60" transform="translate(0 149.643)">
          <path id="Caminho_73" data-name="Caminho 73" d="M181.071,84.1C81.9,84.1,1.5,55.621,1.5,20.5v93.527h.337C7.306,147.4,85.45,173.884,181.071,173.884S354.837,147.4,360.306,114.027h.337V20.5C360.643,55.621,280.247,84.1,181.071,84.1Z" transform="translate(-1.5 -16.759)" fill="#4790f7"/>
          <path id="Caminho_74" data-name="Caminho 74" d="M1.5,20v3.741A23.258,23.258,0,0,1,1.837,20Z" transform="translate(-1.5 -20)" fill="#4790f7"/>
          <path id="Caminho_75" data-name="Caminho 75" d="M49.455,20a23.257,23.257,0,0,1,.337,3.741V20Z" transform="translate(309.351 -20)" fill="#4790f7"/>
        </g>
        <path id="Caminho_83" data-name="Caminho 83" d="M179.571,0C221.82,0,260.66,5.167,291.523,13.869c41.131,11.6,67.62,29.567,67.62,49.729,0,35.124-80.4,63.6-179.571,63.6S0,98.723,0,63.6,80.4,0,179.571,0Z" fill="#d8e8ff"/>
        <g id="Grupo_61" data-name="Grupo 61" transform="translate(0 59.857)">
          <path id="Caminho_76" data-name="Caminho 76" d="M181.071,72.1C81.9,72.1,1.5,43.621,1.5,8.5v93.527h.337C7.306,135.4,85.45,161.884,181.071,161.884S354.837,135.4,360.306,102.027h.337V8.5C360.643,43.621,280.247,72.1,181.071,72.1Z" transform="translate(-1.5 -4.759)" fill="#98c3ff"/>
          <path id="Caminho_77" data-name="Caminho 77" d="M1.5,8v3.741A23.257,23.257,0,0,1,1.837,8Z" transform="translate(-1.5 -8)" fill="#98c3ff"/>
          <path id="Caminho_78" data-name="Caminho 78" d="M49.455,8a23.26,23.26,0,0,1,.337,3.741V8Z" transform="translate(309.351 -8)" fill="#98c3ff"/>
        </g>
      </g>
      <g id="Grupo_63" data-name="Grupo 63" transform="translate(218.482 239.429)">
        <circle id="Elipse_19" data-name="Elipse 19" cx="89.786" cy="89.786" r="89.786" fill="#98c3ff"/>
        <path id="Caminho_79" data-name="Caminho 79" d="M130.561,39.343a7.472,7.472,0,0,0-10.415,1.871L78.276,101.37,48.729,77.113A7.48,7.48,0,1,0,39.242,88.68l35.81,29.4a7.5,7.5,0,0,0,4.744,1.7,7.948,7.948,0,0,0,1.025-.067,7.521,7.521,0,0,0,5.118-3.135l46.494-66.808A7.5,7.5,0,0,0,130.561,39.343Z" transform="translate(8.39 6.889)" fill="#fff"/>
      </g>
    </g>
    <g id="wifi_1_" data-name="wifi (1)" transform="translate(617.048 307.308)">
      <path id="Caminho_67" data-name="Caminho 67" d="M294.514,63.736C256.7,25.919,206.274,3,148.976,3S40.109,25.919,3.438,63.736a11.078,11.078,0,0,0,0,16.044L19.481,95.823a11.078,11.078,0,0,0,16.044,0,160.463,160.463,0,0,1,226.9,0,11.078,11.078,0,0,0,16.044,0L294.514,79.78a10.4,10.4,0,0,0,3.438-8.022C297.952,68.32,296.806,64.882,294.514,63.736Z" transform="translate(0 0)" fill="#d8e8ff"/>
      <path id="Caminho_68" data-name="Caminho 68" d="M89.356,11A111.544,111.544,0,0,0,9.138,44.233a11.078,11.078,0,0,0,0,16.044L25.181,76.32a11.078,11.078,0,0,0,16.044,0A67.55,67.55,0,0,1,89.356,56.839c18.335,0,35.525,8.022,48.131,19.481a11.078,11.078,0,0,0,16.044,0l16.044-16.044a11.078,11.078,0,0,0,0-16.044A111.544,111.544,0,0,0,89.356,11Z" transform="translate(59.62 83.677)" fill="#d8e8ff"/>
      <circle id="Elipse_17" data-name="Elipse 17" cx="22.919" cy="22.919" r="22.919" transform="translate(126.056 186.355)" fill="#d8e8ff"/>
    </g>
  </g>
</svg>
